<?xml version='1.0' encoding='utf-8'?>
<mlt LC_NUMERIC="C" producer="main_bin" version="7.18.0" root="/home/pila/Desktop/Youtube/ytb1">
 <profile frame_rate_num="30" sample_aspect_num="1" display_aspect_den="9" colorspace="709" progressive="1" description="HD 1080p 30 fps" display_aspect_num="16" frame_rate_den="1" width="1920" height="1080" sample_aspect_den="1"/>
 <producer id="producer1" in="00:00:00.000" out="00:09:22.000">
  <property name="length">16861</property>
  <property name="eof">pause</property>
  <property name="resource">image.jpeg</property>
  <property name="ttl">25</property>
  <property name="aspect_ratio">1</property>
  <property name="meta.media.progressive">1</property>
  <property name="seekable">1</property>
  <property name="format">1</property>
  <property name="meta.media.width">293</property>
  <property name="meta.media.height">172</property>
  <property name="mlt_service">qimage</property>
  <property name="kdenlive:clipname"/>
  <property name="kdenlive:duration">00:00:05:00</property>
  <property name="kdenlive:folderid">-1</property>
  <property name="kdenlive:id">4</property>
  <property name="kdenlive:clip_type">2</property>
  <property name="kdenlive:file_size">799</property>
  <property name="kdenlive:file_hash">8ce0920be729f35078e1abb56969a3f1</property>
 </producer>
 <chain id="chain14" out="00:00:01.033">
  <property name="length">32</property>
  <property name="eof">pause</property>
  <property name="resource">/home/pila/Desktop/sounds/a.mp3</property>
  <property name="mlt_service">avformat</property>
  <property name="meta.media.nb_streams">1</property>
  <property name="meta.media.0.stream.type">audio</property>
  <property name="meta.media.0.codec.sample_fmt">fltp</property>
  <property name="meta.media.0.codec.sample_rate">48000</property>
  <property name="meta.media.0.codec.channels">2</property>
  <property name="meta.media.0.codec.name">mp3float</property>
  <property name="meta.media.0.codec.long_name">MP3 (MPEG audio layer 3)</property>
  <property name="meta.media.0.codec.bit_rate">101867</property>
  <property name="meta.attr.0.stream.encoder.markup">Lavf</property>
  <property name="meta.attr.encoder.markup">Lavf58.76.100</property>
  <property name="seekable">1</property>
  <property name="audio_index">0</property>
  <property name="video_index">-1</property>
  <property name="kdenlive:clipname"/>
  <property name="kdenlive:clip_type">1</property>
  <property name="kdenlive:folderid">17</property>
  <property name="kdenlive:id">5</property>
  <property name="kdenlive:file_size">13797</property>
  <property name="kdenlive:file_hash">440eb21127734b02b114d87e59bca693</property>
  <property name="kdenlive:audio_max0">138</property>
 </chain>
 <chain id="chain16" out="00:00:01.033">
  <property name="length">32</property>
  <property name="eof">pause</property>
  <property name="resource">/home/pila/Desktop/sounds/b.mp3</property>
  <property name="mlt_service">avformat</property>
  <property name="meta.media.nb_streams">1</property>
  <property name="meta.media.0.stream.type">audio</property>
  <property name="meta.media.0.codec.sample_fmt">fltp</property>
  <property name="meta.media.0.codec.sample_rate">48000</property>
  <property name="meta.media.0.codec.channels">2</property>
  <property name="meta.media.0.codec.name">mp3float</property>
  <property name="meta.media.0.codec.long_name">MP3 (MPEG audio layer 3)</property>
  <property name="meta.media.0.codec.bit_rate">65067</property>
  <property name="meta.attr.0.stream.encoder.markup">Lavf</property>
  <property name="meta.attr.encoder.markup">Lavf58.76.100</property>
  <property name="seekable">1</property>
  <property name="audio_index">0</property>
  <property name="video_index">-1</property>
  <property name="kdenlive:clipname"/>
  <property name="kdenlive:clip_type">1</property>
  <property name="kdenlive:folderid">17</property>
  <property name="kdenlive:id">6</property>
  <property name="kdenlive:file_size">8829</property>
  <property name="kdenlive:file_hash">665f81080d781e6b92729c613033c90c</property>
  <property name="kdenlive:audio_max0">96</property>
 </chain>
 <chain id="chain15" out="00:00:01.333">
  <property name="length">41</property>
  <property name="eof">pause</property>
  <property name="resource">/home/pila/Desktop/sounds/c.mp3</property>
  <property name="mlt_service">avformat</property>
  <property name="meta.media.nb_streams">1</property>
  <property name="meta.media.0.stream.type">audio</property>
  <property name="meta.media.0.codec.sample_fmt">fltp</property>
  <property name="meta.media.0.codec.sample_rate">48000</property>
  <property name="meta.media.0.codec.channels">2</property>
  <property name="meta.media.0.codec.name">mp3float</property>
  <property name="meta.media.0.codec.long_name">MP3 (MPEG audio layer 3)</property>
  <property name="meta.media.0.codec.bit_rate">126316</property>
  <property name="meta.attr.0.stream.encoder.markup">Lavf</property>
  <property name="meta.attr.encoder.markup">Lavf58.76.100</property>
  <property name="seekable">1</property>
  <property name="audio_index">0</property>
  <property name="video_index">-1</property>
  <property name="kdenlive:clipname"/>
  <property name="kdenlive:clip_type">1</property>
  <property name="kdenlive:folderid">17</property>
  <property name="kdenlive:id">7</property>
  <property name="kdenlive:file_size">21645</property>
  <property name="kdenlive:file_hash">44a416be432b9a28f677c99d795490fa</property>
  <property name="kdenlive:audio_max0">66</property>
 </chain>
 <chain id="chain18" out="00:00:00.700">
  <property name="length">22</property>
  <property name="eof">pause</property>
  <property name="resource">/home/pila/Desktop/sounds/d.mp3</property>
  <property name="mlt_service">avformat</property>
  <property name="meta.media.nb_streams">1</property>
  <property name="meta.media.0.stream.type">audio</property>
  <property name="meta.media.0.codec.sample_fmt">fltp</property>
  <property name="meta.media.0.codec.sample_rate">48000</property>
  <property name="meta.media.0.codec.channels">2</property>
  <property name="meta.media.0.codec.name">mp3float</property>
  <property name="meta.media.0.codec.long_name">MP3 (MPEG audio layer 3)</property>
  <property name="meta.media.0.codec.bit_rate">59467</property>
  <property name="meta.attr.0.stream.encoder.markup">Lavf</property>
  <property name="meta.attr.encoder.markup">Lavf58.76.100</property>
  <property name="seekable">1</property>
  <property name="audio_index">0</property>
  <property name="video_index">-1</property>
  <property name="kdenlive:clipname"/>
  <property name="kdenlive:clip_type">1</property>
  <property name="kdenlive:folderid">17</property>
  <property name="kdenlive:id">8</property>
  <property name="kdenlive:file_size">5397</property>
  <property name="kdenlive:file_hash">e54b7aa0df27049d8dc80a1a8ac29265</property>
  <property name="kdenlive:audio_max0">158</property>
 </chain>
 <chain id="chain17" out="00:00:00.833">
  <property name="length">26</property>
  <property name="eof">pause</property>
  <property name="resource">/home/pila/Desktop/sounds/e.mp3</property>
  <property name="mlt_service">avformat</property>
  <property name="meta.media.nb_streams">1</property>
  <property name="meta.media.0.stream.type">audio</property>
  <property name="meta.media.0.codec.sample_fmt">fltp</property>
  <property name="meta.media.0.codec.sample_rate">48000</property>
  <property name="meta.media.0.codec.channels">2</property>
  <property name="meta.media.0.codec.name">mp3float</property>
  <property name="meta.media.0.codec.long_name">MP3 (MPEG audio layer 3)</property>
  <property name="meta.media.0.codec.bit_rate">70000</property>
  <property name="meta.attr.0.stream.encoder.markup">Lavf</property>
  <property name="meta.attr.encoder.markup">Lavf58.76.100</property>
  <property name="seekable">1</property>
  <property name="audio_index">0</property>
  <property name="video_index">-1</property>
  <property name="kdenlive:clipname"/>
  <property name="kdenlive:clip_type">1</property>
  <property name="kdenlive:folderid">17</property>
  <property name="kdenlive:id">9</property>
  <property name="kdenlive:file_size">7605</property>
  <property name="kdenlive:file_hash">777a24410423c3c7b60701570fc5a674</property>
  <property name="kdenlive:audio_max0">159</property>
 </chain>
 <chain id="chain19" out="00:00:00.633">
  <property name="length">20</property>
  <property name="eof">pause</property>
  <property name="resource">/home/pila/Desktop/sounds/f.mp3</property>
  <property name="mlt_service">avformat</property>
  <property name="meta.media.nb_streams">1</property>
  <property name="meta.media.0.stream.type">audio</property>
  <property name="meta.media.0.codec.sample_fmt">fltp</property>
  <property name="meta.media.0.codec.sample_rate">48000</property>
  <property name="meta.media.0.codec.channels">2</property>
  <property name="meta.media.0.codec.name">mp3float</property>
  <property name="meta.media.0.codec.long_name">MP3 (MPEG audio layer 3)</property>
  <property name="meta.media.0.codec.bit_rate">48857</property>
  <property name="meta.attr.0.stream.encoder.markup">Lavf</property>
  <property name="meta.attr.encoder.markup">Lavf58.76.100</property>
  <property name="seekable">1</property>
  <property name="audio_index">0</property>
  <property name="video_index">-1</property>
  <property name="kdenlive:clipname"/>
  <property name="kdenlive:clip_type">1</property>
  <property name="kdenlive:folderid">17</property>
  <property name="kdenlive:id">10</property>
  <property name="kdenlive:file_size">4149</property>
  <property name="kdenlive:file_hash">5cae1dd848ebde6517f88af364fc8580</property>
  <property name="kdenlive:audio_max0">174</property>
 </chain>
 <chain id="chain20" out="00:00:00.700">
  <property name="length">22</property>
  <property name="eof">pause</property>
  <property name="resource">/home/pila/Desktop/sounds/g.mp3</property>
  <property name="mlt_service">avformat</property>
  <property name="meta.media.nb_streams">1</property>
  <property name="meta.media.0.stream.type">audio</property>
  <property name="meta.media.0.codec.sample_fmt">fltp</property>
  <property name="meta.media.0.codec.sample_rate">48000</property>
  <property name="meta.media.0.codec.channels">2</property>
  <property name="meta.media.0.codec.name">mp3float</property>
  <property name="meta.media.0.codec.long_name">MP3 (MPEG audio layer 3)</property>
  <property name="meta.media.0.codec.bit_rate">80000</property>
  <property name="meta.attr.0.stream.encoder.markup">Lavf</property>
  <property name="meta.attr.encoder.markup">Lavf58.76.100</property>
  <property name="seekable">1</property>
  <property name="audio_index">0</property>
  <property name="video_index">-1</property>
  <property name="kdenlive:clipname"/>
  <property name="kdenlive:clip_type">1</property>
  <property name="kdenlive:folderid">17</property>
  <property name="kdenlive:id">11</property>
  <property name="kdenlive:file_size">7485</property>
  <property name="kdenlive:file_hash">0267a2e6dea76ae4ea52bb0b2cdd4616</property>
  <property name="kdenlive:audio_max0">157</property>
 </chain>
 <chain id="chain22" out="00:00:01.000">
  <property name="length">31</property>
  <property name="eof">pause</property>
  <property name="resource">/home/pila/Desktop/sounds/h.mp3</property>
  <property name="mlt_service">avformat</property>
  <property name="meta.media.nb_streams">1</property>
  <property name="meta.media.0.stream.type">audio</property>
  <property name="meta.media.0.codec.sample_fmt">fltp</property>
  <property name="meta.media.0.codec.sample_rate">48000</property>
  <property name="meta.media.0.codec.channels">2</property>
  <property name="meta.media.0.codec.name">mp3float</property>
  <property name="meta.media.0.codec.long_name">MP3 (MPEG audio layer 3)</property>
  <property name="meta.media.0.codec.bit_rate">43163</property>
  <property name="meta.attr.0.stream.encoder.markup">Lavf</property>
  <property name="meta.attr.encoder.markup">Lavf58.76.100</property>
  <property name="seekable">1</property>
  <property name="audio_index">0</property>
  <property name="video_index">-1</property>
  <property name="kdenlive:clipname"/>
  <property name="kdenlive:clip_type">1</property>
  <property name="kdenlive:folderid">17</property>
  <property name="kdenlive:id">12</property>
  <property name="kdenlive:file_size">5613</property>
  <property name="kdenlive:file_hash">f4412d20c96c208876b5c9b7cdd98bb1</property>
  <property name="kdenlive:audio_max0">136</property>
 </chain>
 <chain id="chain21" out="00:00:35.933">
  <property name="length">1079</property>
  <property name="eof">pause</property>
  <property name="resource">/home/pila/Desktop/sounds/y2mate.is - Pop Sound Effects Copyright Free -BYPqS0YPxh8-192k-1695981496.mp3</property>
  <property name="mlt_service">avformat</property>
  <property name="meta.media.nb_streams">1</property>
  <property name="meta.media.0.stream.type">audio</property>
  <property name="meta.media.0.codec.sample_fmt">fltp</property>
  <property name="meta.media.0.codec.sample_rate">48000</property>
  <property name="meta.media.0.codec.channels">2</property>
  <property name="meta.media.0.codec.name">mp3float</property>
  <property name="meta.media.0.codec.long_name">MP3 (MPEG audio layer 3)</property>
  <property name="meta.media.0.codec.bit_rate">192000</property>
  <property name="meta.attr.0.stream.encoder.markup">Lavc60.3.</property>
  <property name="meta.attr.encoder.markup">Lavf60.3.100</property>
  <property name="seekable">1</property>
  <property name="audio_index">0</property>
  <property name="video_index">-1</property>
  <property name="kdenlive:clipname"/>
  <property name="kdenlive:clip_type">1</property>
  <property name="kdenlive:folderid">17</property>
  <property name="kdenlive:id">13</property>
  <property name="kdenlive:file_size">863468</property>
  <property name="kdenlive:file_hash">f91f4d2bb88377178ee90b5b5d7a41fe</property>
  <property name="kdenlive:audio_max0">210</property>
 </chain>
 <chain id="chain10" out="00:00:48.933">
  <property name="length">1469</property>
  <property name="eof">pause</property>
  <property name="resource">mySounds/s1.mp3</property>
  <property name="mlt_service">avformat</property>
  <property name="meta.media.nb_streams">1</property>
  <property name="meta.media.0.stream.type">audio</property>
  <property name="meta.media.0.codec.sample_fmt">fltp</property>
  <property name="meta.media.0.codec.sample_rate">44100</property>
  <property name="meta.media.0.codec.channels">2</property>
  <property name="meta.media.0.codec.name">mp3float</property>
  <property name="meta.media.0.codec.long_name">MP3 (MPEG audio layer 3)</property>
  <property name="meta.media.0.codec.bit_rate">123394</property>
  <property name="meta.attr.0.stream.encoder.markup">LAME3.100</property>
  <property name="seekable">1</property>
  <property name="audio_index">0</property>
  <property name="video_index">-1</property>
  <property name="kdenlive:clipname"/>
  <property name="kdenlive:clip_type">1</property>
  <property name="kdenlive:folderid">38</property>
  <property name="kdenlive:id">14</property>
  <property name="kdenlive:file_size">755471</property>
  <property name="kdenlive:file_hash">0362cce7400f40e4c97eed46d5b426dd</property>
  <property name="kdenlive:audio_max0">137</property>
 </chain>
 <chain id="chain12" out="00:00:51.633">
  <property name="length">1550</property>
  <property name="eof">pause</property>
  <property name="resource">mySounds/s2.mp3</property>
  <property name="mlt_service">avformat</property>
  <property name="meta.media.nb_streams">1</property>
  <property name="meta.media.0.stream.type">audio</property>
  <property name="meta.media.0.codec.sample_fmt">fltp</property>
  <property name="meta.media.0.codec.sample_rate">44100</property>
  <property name="meta.media.0.codec.channels">2</property>
  <property name="meta.media.0.codec.name">mp3float</property>
  <property name="meta.media.0.codec.long_name">MP3 (MPEG audio layer 3)</property>
  <property name="meta.media.0.codec.bit_rate">127191</property>
  <property name="meta.attr.0.stream.encoder.markup">LAME3.100</property>
  <property name="seekable">1</property>
  <property name="audio_index">0</property>
  <property name="video_index">-1</property>
  <property name="kdenlive:clipname"/>
  <property name="kdenlive:clip_type">1</property>
  <property name="kdenlive:folderid">38</property>
  <property name="kdenlive:id">15</property>
  <property name="kdenlive:file_size">821497</property>
  <property name="kdenlive:file_hash">c902721cefe3e42152cf40fec12899fe</property>
  <property name="kdenlive:audio_max0">164</property>
 </chain>
 <chain id="chain23" out="00:01:35.500">
  <property name="length">2866</property>
  <property name="eof">pause</property>
  <property name="resource">mySounds/s3.mp3</property>
  <property name="mlt_service">avformat</property>
  <property name="meta.media.nb_streams">1</property>
  <property name="meta.media.0.stream.type">audio</property>
  <property name="meta.media.0.codec.sample_fmt">fltp</property>
  <property name="meta.media.0.codec.sample_rate">44100</property>
  <property name="meta.media.0.codec.channels">2</property>
  <property name="meta.media.0.codec.name">mp3float</property>
  <property name="meta.media.0.codec.long_name">MP3 (MPEG audio layer 3)</property>
  <property name="meta.media.0.codec.bit_rate">124841</property>
  <property name="meta.attr.0.stream.encoder.markup">LAME3.100</property>
  <property name="seekable">1</property>
  <property name="audio_index">0</property>
  <property name="video_index">-1</property>
  <property name="kdenlive:clipname"/>
  <property name="kdenlive:clip_type">1</property>
  <property name="kdenlive:folderid">38</property>
  <property name="kdenlive:id">16</property>
  <property name="kdenlive:file_size">1490760</property>
  <property name="kdenlive:file_hash">824a6ff7aee9a893fb30bcd2f7185cb8</property>
  <property name="kdenlive:audio_max0">161</property>
 </chain>
 <chain id="chain26" out="00:01:28.267">
  <property name="length">2649</property>
  <property name="eof">pause</property>
  <property name="resource">mySounds/s4.mp3</property>
  <property name="mlt_service">avformat</property>
  <property name="meta.media.nb_streams">1</property>
  <property name="meta.media.0.stream.type">audio</property>
  <property name="meta.media.0.codec.sample_fmt">fltp</property>
  <property name="meta.media.0.codec.sample_rate">44100</property>
  <property name="meta.media.0.codec.channels">2</property>
  <property name="meta.media.0.codec.name">mp3float</property>
  <property name="meta.media.0.codec.long_name">MP3 (MPEG audio layer 3)</property>
  <property name="meta.media.0.codec.bit_rate">124286</property>
  <property name="meta.attr.0.stream.encoder.markup">LAME3.100</property>
  <property name="seekable">1</property>
  <property name="audio_index">0</property>
  <property name="video_index">-1</property>
  <property name="kdenlive:clipname"/>
  <property name="kdenlive:clip_type">1</property>
  <property name="kdenlive:folderid">38</property>
  <property name="kdenlive:id">18</property>
  <property name="kdenlive:file_size">1371711</property>
  <property name="kdenlive:file_hash">8e1fc98255d2e94358a8e20a4a9e1f0a</property>
  <property name="kdenlive:audio_max0">157</property>
 </chain>
 <chain id="chain25" out="00:00:35.000">
  <property name="length">1051</property>
  <property name="eof">pause</property>
  <property name="resource">mySounds/s5.mp3</property>
  <property name="mlt_service">avformat</property>
  <property name="meta.media.nb_streams">1</property>
  <property name="meta.media.0.stream.type">audio</property>
  <property name="meta.media.0.codec.sample_fmt">fltp</property>
  <property name="meta.media.0.codec.sample_rate">44100</property>
  <property name="meta.media.0.codec.channels">2</property>
  <property name="meta.media.0.codec.name">mp3float</property>
  <property name="meta.media.0.codec.long_name">MP3 (MPEG audio layer 3)</property>
  <property name="meta.media.0.codec.bit_rate">123250</property>
  <property name="meta.attr.0.stream.encoder.markup">LAME3.100</property>
  <property name="seekable">1</property>
  <property name="audio_index">0</property>
  <property name="video_index">-1</property>
  <property name="kdenlive:clipname"/>
  <property name="kdenlive:clip_type">1</property>
  <property name="kdenlive:folderid">38</property>
  <property name="kdenlive:id">19</property>
  <property name="kdenlive:file_size">539683</property>
  <property name="kdenlive:file_hash">aba3443adadaa6c9ca3fb9636c50600a</property>
  <property name="kdenlive:audio_max0">165</property>
 </chain>
 <chain id="chain24" out="00:01:06.200">
  <property name="length">1987</property>
  <property name="eof">pause</property>
  <property name="resource">mySounds/s6.mp3</property>
  <property name="mlt_service">avformat</property>
  <property name="meta.media.nb_streams">1</property>
  <property name="meta.media.0.stream.type">audio</property>
  <property name="meta.media.0.codec.sample_fmt">fltp</property>
  <property name="meta.media.0.codec.sample_rate">44100</property>
  <property name="meta.media.0.codec.channels">2</property>
  <property name="meta.media.0.codec.name">mp3float</property>
  <property name="meta.media.0.codec.long_name">MP3 (MPEG audio layer 3)</property>
  <property name="meta.media.0.codec.bit_rate">123336</property>
  <property name="meta.attr.0.stream.encoder.markup">LAME3.100</property>
  <property name="seekable">1</property>
  <property name="audio_index">0</property>
  <property name="video_index">-1</property>
  <property name="kdenlive:clipname"/>
  <property name="kdenlive:clip_type">1</property>
  <property name="kdenlive:folderid">38</property>
  <property name="kdenlive:id">20</property>
  <property name="kdenlive:file_size">1020916</property>
  <property name="kdenlive:file_hash">c404eabc089c0f5d64ee632db4bd80b9</property>
  <property name="kdenlive:audio_max0">164</property>
 </chain>
 <chain id="chain28" out="00:00:59.500">
  <property name="length">1786</property>
  <property name="eof">pause</property>
  <property name="resource">mySounds/s7.mp3</property>
  <property name="mlt_service">avformat</property>
  <property name="meta.media.nb_streams">1</property>
  <property name="meta.media.0.stream.type">audio</property>
  <property name="meta.media.0.codec.sample_fmt">fltp</property>
  <property name="meta.media.0.codec.sample_rate">44100</property>
  <property name="meta.media.0.codec.channels">2</property>
  <property name="meta.media.0.codec.name">mp3float</property>
  <property name="meta.media.0.codec.long_name">MP3 (MPEG audio layer 3)</property>
  <property name="meta.media.0.codec.bit_rate">123217</property>
  <property name="meta.attr.0.stream.encoder.markup">LAME3.100</property>
  <property name="seekable">1</property>
  <property name="audio_index">0</property>
  <property name="video_index">-1</property>
  <property name="kdenlive:clipname"/>
  <property name="kdenlive:clip_type">1</property>
  <property name="kdenlive:folderid">38</property>
  <property name="kdenlive:id">21</property>
  <property name="kdenlive:file_size">916934</property>
  <property name="kdenlive:file_hash">42c02b44749e654fcce8872475b0f935</property>
  <property name="kdenlive:audio_max0">159</property>
 </chain>
 <chain id="chain27" out="00:02:10.433">
  <property name="length">3914</property>
  <property name="eof">pause</property>
  <property name="resource">mySounds/s8.mp3</property>
  <property name="mlt_service">avformat</property>
  <property name="meta.media.nb_streams">1</property>
  <property name="meta.media.0.stream.type">audio</property>
  <property name="meta.media.0.codec.sample_fmt">fltp</property>
  <property name="meta.media.0.codec.sample_rate">44100</property>
  <property name="meta.media.0.codec.channels">2</property>
  <property name="meta.media.0.codec.name">mp3float</property>
  <property name="meta.media.0.codec.long_name">MP3 (MPEG audio layer 3)</property>
  <property name="meta.media.0.codec.bit_rate">115997</property>
  <property name="meta.attr.0.stream.encoder.markup">LAME3.100</property>
  <property name="seekable">1</property>
  <property name="audio_index">0</property>
  <property name="video_index">-1</property>
  <property name="kdenlive:clipname"/>
  <property name="kdenlive:clip_type">1</property>
  <property name="kdenlive:folderid">38</property>
  <property name="kdenlive:id">22</property>
  <property name="kdenlive:file_size">1891935</property>
  <property name="kdenlive:file_hash">3e91ee69b54ebb8c413acf4ce4f1bc1f</property>
  <property name="kdenlive:audio_max0">163</property>
 </chain>
 <chain id="chain29" out="00:01:48.033">
  <property name="length">3242</property>
  <property name="eof">pause</property>
  <property name="resource">mySounds/s9.mp3</property>
  <property name="mlt_service">avformat</property>
  <property name="meta.media.nb_streams">1</property>
  <property name="meta.media.0.stream.type">audio</property>
  <property name="meta.media.0.codec.sample_fmt">fltp</property>
  <property name="meta.media.0.codec.sample_rate">44100</property>
  <property name="meta.media.0.codec.channels">2</property>
  <property name="meta.media.0.codec.name">mp3float</property>
  <property name="meta.media.0.codec.long_name">MP3 (MPEG audio layer 3)</property>
  <property name="meta.media.0.codec.bit_rate">123139</property>
  <property name="meta.attr.0.stream.encoder.markup">LAME3.100</property>
  <property name="seekable">1</property>
  <property name="audio_index">0</property>
  <property name="video_index">-1</property>
  <property name="kdenlive:clipname"/>
  <property name="kdenlive:clip_type">1</property>
  <property name="kdenlive:folderid">38</property>
  <property name="kdenlive:id">23</property>
  <property name="kdenlive:file_size">1663435</property>
  <property name="kdenlive:file_hash">db8daeb648e3c247f376b5b2a91f6db6</property>
  <property name="kdenlive:audio_max0">171</property>
 </chain>
 <chain id="chain30" out="00:00:58.033">
  <property name="length">1742</property>
  <property name="eof">pause</property>
  <property name="resource">y2mate.is - Whiteboard Animation video with Background Music-r8vvbviIHGE-192k-1695984665.mp3</property>
  <property name="mlt_service">avformat</property>
  <property name="meta.media.nb_streams">1</property>
  <property name="meta.media.0.stream.type">audio</property>
  <property name="meta.media.0.codec.sample_fmt">fltp</property>
  <property name="meta.media.0.codec.sample_rate">48000</property>
  <property name="meta.media.0.codec.channels">2</property>
  <property name="meta.media.0.codec.name">mp3float</property>
  <property name="meta.media.0.codec.long_name">MP3 (MPEG audio layer 3)</property>
  <property name="meta.media.0.codec.bit_rate">192000</property>
  <property name="meta.attr.0.stream.encoder.markup">Lavc60.3.</property>
  <property name="meta.attr.encoder.markup">Lavf60.3.100</property>
  <property name="seekable">1</property>
  <property name="audio_index">0</property>
  <property name="video_index">-1</property>
  <property name="kdenlive:clipname"/>
  <property name="kdenlive:clip_type">1</property>
  <property name="kdenlive:folderid">-1</property>
  <property name="kdenlive:id">24</property>
  <property name="kdenlive:file_size">1394540</property>
  <property name="kdenlive:file_hash">11277f1f68ebe26944c160de98b0832a</property>
  <property name="kdenlive:audio_max0">157</property>
 </chain>
 <chain id="chain32" out="00:00:52.133">
  <property name="length">1565</property>
  <property name="eof">pause</property>
  <property name="resource">ends/end1.mp4</property>
  <property name="mlt_service">avformat-novalidate</property>
  <property name="meta.media.nb_streams">2</property>
  <property name="meta.media.0.stream.type">video</property>
  <property name="meta.media.0.stream.frame_rate">30</property>
  <property name="meta.media.0.stream.sample_aspect_ratio">1</property>
  <property name="meta.media.0.codec.width">1920</property>
  <property name="meta.media.0.codec.height">1080</property>
  <property name="meta.media.0.codec.rotate">0</property>
  <property name="meta.media.0.codec.pix_fmt">yuv420p</property>
  <property name="meta.media.0.codec.sample_aspect_ratio">1</property>
  <property name="meta.media.0.codec.colorspace">709</property>
  <property name="meta.media.0.codec.color_trc">1</property>
  <property name="meta.media.0.codec.name">h264</property>
  <property name="meta.media.0.codec.long_name">H.264 / AVC / MPEG-4 AVC / MPEG-4 part 10</property>
  <property name="meta.media.0.codec.bit_rate">484348</property>
  <property name="meta.attr.0.stream.handler_name.markup">VideoHandler</property>
  <property name="meta.attr.0.stream.vendor_id.markup">[0][0][0][0]</property>
  <property name="meta.media.1.stream.type">audio</property>
  <property name="meta.media.1.codec.sample_fmt">fltp</property>
  <property name="meta.media.1.codec.sample_rate">48000</property>
  <property name="meta.media.1.codec.channels">2</property>
  <property name="meta.media.1.codec.name">aac</property>
  <property name="meta.media.1.codec.long_name">AAC (Advanced Audio Coding)</property>
  <property name="meta.media.1.codec.bit_rate">161186</property>
  <property name="meta.attr.1.stream.handler_name.markup">SoundHandler</property>
  <property name="meta.attr.1.stream.vendor_id.markup">[0][0][0][0]</property>
  <property name="meta.attr.major_brand.markup">isom</property>
  <property name="meta.attr.minor_version.markup">512</property>
  <property name="meta.attr.compatible_brands.markup">isomiso2avc1mp41</property>
  <property name="meta.attr.encoder.markup">Lavf58.76.100</property>
  <property name="seekable">1</property>
  <property name="meta.media.sample_aspect_num">1</property>
  <property name="meta.media.sample_aspect_den">1</property>
  <property name="format">3</property>
  <property name="audio_index">1</property>
  <property name="video_index">0</property>
  <property name="meta.media.frame_rate_num">30</property>
  <property name="meta.media.frame_rate_den">1</property>
  <property name="meta.media.colorspace">709</property>
  <property name="meta.media.color_trc">1</property>
  <property name="meta.media.has_b_frames">2</property>
  <property name="meta.media.width">1920</property>
  <property name="meta.media.height">1080</property>
  <property name="meta.media.color_range">mpeg</property>
  <property name="kdenlive:clipname"/>
  <property name="meta.media.top_field_first">0</property>
  <property name="meta.media.progressive">1</property>
  <property name="kdenlive:clip_type">0</property>
  <property name="kdenlive:folderid">26</property>
  <property name="kdenlive:id">25</property>
  <property name="mute_on_pause">0</property>
  <property name="kdenlive:file_size">4268015</property>
  <property name="kdenlive:file_hash">a6fdb9a26d60b40929744c88512f7cf2</property>
  <property name="kdenlive:audio_max1">159</property>
 </chain>
 <chain id="chain33" out="00:01:35.667">
  <property name="length">2871</property>
  <property name="eof">pause</property>
  <property name="resource">video/v1.mkv</property>
  <property name="mlt_service">avformat-novalidate</property>
  <property name="meta.media.nb_streams">2</property>
  <property name="meta.media.0.stream.type">video</property>
  <property name="meta.media.0.stream.frame_rate">30</property>
  <property name="meta.media.0.stream.sample_aspect_ratio">0</property>
  <property name="meta.media.0.codec.width">1280</property>
  <property name="meta.media.0.codec.height">720</property>
  <property name="meta.media.0.codec.rotate">0</property>
  <property name="meta.media.0.codec.pix_fmt">yuv420p</property>
  <property name="meta.media.0.codec.sample_aspect_ratio">1</property>
  <property name="meta.media.0.codec.colorspace">709</property>
  <property name="meta.media.0.codec.color_trc">1</property>
  <property name="meta.media.0.codec.name">h264</property>
  <property name="meta.media.0.codec.long_name">H.264 / AVC / MPEG-4 AVC / MPEG-4 part 10</property>
  <property name="meta.media.0.codec.bit_rate">0</property>
  <property name="meta.attr.0.stream.DURATION.markup">00:01:35.700000000</property>
  <property name="meta.media.1.stream.type">audio</property>
  <property name="meta.media.1.codec.sample_fmt">fltp</property>
  <property name="meta.media.1.codec.sample_rate">48000</property>
  <property name="meta.media.1.codec.channels">2</property>
  <property name="meta.media.1.codec.name">aac</property>
  <property name="meta.media.1.codec.long_name">AAC (Advanced Audio Coding)</property>
  <property name="meta.media.1.codec.bit_rate">0</property>
  <property name="meta.attr.1.stream.title.markup">simple_aac</property>
  <property name="meta.attr.1.stream.DURATION.markup">00:01:35.616000000</property>
  <property name="meta.attr.ENCODER.markup">Lavf58.76.100</property>
  <property name="seekable">1</property>
  <property name="meta.media.sample_aspect_num">1</property>
  <property name="meta.media.sample_aspect_den">1</property>
  <property name="format">3</property>
  <property name="audio_index">1</property>
  <property name="video_index">0</property>
  <property name="meta.media.frame_rate_num">30</property>
  <property name="meta.media.frame_rate_den">1</property>
  <property name="meta.media.colorspace">709</property>
  <property name="meta.media.color_trc">1</property>
  <property name="meta.media.has_b_frames">2</property>
  <property name="meta.media.width">1280</property>
  <property name="meta.media.height">720</property>
  <property name="meta.media.color_range">mpeg</property>
  <property name="kdenlive:clipname"/>
  <property name="meta.media.top_field_first">0</property>
  <property name="meta.media.progressive">1</property>
  <property name="kdenlive:clip_type">0</property>
  <property name="kdenlive:folderid">28</property>
  <property name="kdenlive:id">27</property>
  <property name="mute_on_pause">0</property>
  <property name="kdenlive:file_size">31832894</property>
  <property name="kdenlive:file_hash">7eb525cb140b3ef820f25a6a8363bc65</property>
  <property name="kdenlive:audio_max1">236</property>
 </chain>
 <chain id="chain34" out="00:01:52.233">
  <property name="length">3368</property>
  <property name="eof">pause</property>
  <property name="resource">video/v2.mkv</property>
  <property name="mlt_service">avformat-novalidate</property>
  <property name="meta.media.nb_streams">2</property>
  <property name="meta.media.0.stream.type">video</property>
  <property name="meta.media.0.stream.frame_rate">30</property>
  <property name="meta.media.0.stream.sample_aspect_ratio">0</property>
  <property name="meta.media.0.codec.width">1920</property>
  <property name="meta.media.0.codec.height">1080</property>
  <property name="meta.media.0.codec.rotate">0</property>
  <property name="meta.media.0.codec.pix_fmt">yuv420p</property>
  <property name="meta.media.0.codec.sample_aspect_ratio">1</property>
  <property name="meta.media.0.codec.colorspace">709</property>
  <property name="meta.media.0.codec.color_trc">1</property>
  <property name="meta.media.0.codec.name">h264</property>
  <property name="meta.media.0.codec.long_name">H.264 / AVC / MPEG-4 AVC / MPEG-4 part 10</property>
  <property name="meta.media.0.codec.bit_rate">0</property>
  <property name="meta.attr.0.stream.DURATION.markup">00:01:52.266000000</property>
  <property name="meta.media.1.stream.type">audio</property>
  <property name="meta.media.1.codec.sample_fmt">fltp</property>
  <property name="meta.media.1.codec.sample_rate">48000</property>
  <property name="meta.media.1.codec.channels">2</property>
  <property name="meta.media.1.codec.name">aac</property>
  <property name="meta.media.1.codec.long_name">AAC (Advanced Audio Coding)</property>
  <property name="meta.media.1.codec.bit_rate">0</property>
  <property name="meta.attr.1.stream.title.markup">simple_aac</property>
  <property name="meta.attr.1.stream.DURATION.markup">00:01:52.170000000</property>
  <property name="meta.attr.ENCODER.markup">Lavf58.76.100</property>
  <property name="seekable">1</property>
  <property name="meta.media.sample_aspect_num">1</property>
  <property name="meta.media.sample_aspect_den">1</property>
  <property name="format">3</property>
  <property name="audio_index">1</property>
  <property name="video_index">0</property>
  <property name="meta.media.frame_rate_num">30</property>
  <property name="meta.media.frame_rate_den">1</property>
  <property name="meta.media.colorspace">709</property>
  <property name="meta.media.color_trc">1</property>
  <property name="meta.media.has_b_frames">2</property>
  <property name="meta.media.width">1920</property>
  <property name="meta.media.height">1080</property>
  <property name="meta.media.color_range">mpeg</property>
  <property name="kdenlive:clipname"/>
  <property name="meta.media.top_field_first">0</property>
  <property name="meta.media.progressive">1</property>
  <property name="kdenlive:clip_type">0</property>
  <property name="kdenlive:folderid">28</property>
  <property name="kdenlive:id">29</property>
  <property name="mute_on_pause">0</property>
  <property name="kdenlive:file_size">37350473</property>
  <property name="kdenlive:file_hash">45c7b9eba447b40acbcb05a7e643046c</property>
  <property name="kdenlive:audio_max1">224</property>
 </chain>
 <chain id="chain13" out="00:02:19.400">
  <property name="length">4183</property>
  <property name="eof">pause</property>
  <property name="resource">ends/end2.mp4</property>
  <property name="mlt_service">avformat-novalidate</property>
  <property name="meta.media.nb_streams">2</property>
  <property name="meta.media.0.stream.type">video</property>
  <property name="meta.media.0.stream.frame_rate">30</property>
  <property name="meta.media.0.stream.sample_aspect_ratio">1</property>
  <property name="meta.media.0.codec.width">1920</property>
  <property name="meta.media.0.codec.height">1080</property>
  <property name="meta.media.0.codec.rotate">0</property>
  <property name="meta.media.0.codec.pix_fmt">yuv420p</property>
  <property name="meta.media.0.codec.sample_aspect_ratio">1</property>
  <property name="meta.media.0.codec.colorspace">709</property>
  <property name="meta.media.0.codec.color_trc">1</property>
  <property name="meta.media.0.codec.name">h264</property>
  <property name="meta.media.0.codec.long_name">H.264 / AVC / MPEG-4 AVC / MPEG-4 part 10</property>
  <property name="meta.media.0.codec.bit_rate">481401</property>
  <property name="meta.attr.0.stream.handler_name.markup">VideoHandler</property>
  <property name="meta.attr.0.stream.vendor_id.markup">[0][0][0][0]</property>
  <property name="meta.media.1.stream.type">audio</property>
  <property name="meta.media.1.codec.sample_fmt">fltp</property>
  <property name="meta.media.1.codec.sample_rate">48000</property>
  <property name="meta.media.1.codec.channels">2</property>
  <property name="meta.media.1.codec.name">aac</property>
  <property name="meta.media.1.codec.long_name">AAC (Advanced Audio Coding)</property>
  <property name="meta.media.1.codec.bit_rate">160422</property>
  <property name="meta.attr.1.stream.handler_name.markup">SoundHandler</property>
  <property name="meta.attr.1.stream.vendor_id.markup">[0][0][0][0]</property>
  <property name="meta.attr.major_brand.markup">isom</property>
  <property name="meta.attr.minor_version.markup">512</property>
  <property name="meta.attr.compatible_brands.markup">isomiso2avc1mp41</property>
  <property name="meta.attr.encoder.markup">Lavf58.76.100</property>
  <property name="seekable">1</property>
  <property name="meta.media.sample_aspect_num">1</property>
  <property name="meta.media.sample_aspect_den">1</property>
  <property name="format">3</property>
  <property name="audio_index">1</property>
  <property name="video_index">0</property>
  <property name="meta.media.frame_rate_num">30</property>
  <property name="meta.media.frame_rate_den">1</property>
  <property name="meta.media.colorspace">709</property>
  <property name="meta.media.color_trc">1</property>
  <property name="meta.media.has_b_frames">2</property>
  <property name="meta.media.width">1920</property>
  <property name="meta.media.height">1080</property>
  <property name="meta.media.color_range">mpeg</property>
  <property name="kdenlive:clipname"/>
  <property name="meta.media.top_field_first">0</property>
  <property name="meta.media.progressive">1</property>
  <property name="kdenlive:clip_type">0</property>
  <property name="kdenlive:folderid">26</property>
  <property name="kdenlive:id">30</property>
  <property name="mute_on_pause">0</property>
  <property name="kdenlive:file_size">11340717</property>
  <property name="kdenlive:file_hash">07200c5869d36126250b0823eba6f4f5</property>
  <property name="kdenlive:audio_max1">160</property>
 </chain>
 <chain id="chain31" out="00:01:48.067">
  <property name="length">3243</property>
  <property name="eof">pause</property>
  <property name="resource">video/v3.mkv</property>
  <property name="mlt_service">avformat-novalidate</property>
  <property name="meta.media.nb_streams">2</property>
  <property name="meta.media.0.stream.type">video</property>
  <property name="meta.media.0.stream.frame_rate">30</property>
  <property name="meta.media.0.stream.sample_aspect_ratio">0</property>
  <property name="meta.media.0.codec.width">1920</property>
  <property name="meta.media.0.codec.height">1080</property>
  <property name="meta.media.0.codec.rotate">0</property>
  <property name="meta.media.0.codec.pix_fmt">yuv420p</property>
  <property name="meta.media.0.codec.sample_aspect_ratio">1</property>
  <property name="meta.media.0.codec.colorspace">709</property>
  <property name="meta.media.0.codec.color_trc">1</property>
  <property name="meta.media.0.codec.name">h264</property>
  <property name="meta.media.0.codec.long_name">H.264 / AVC / MPEG-4 AVC / MPEG-4 part 10</property>
  <property name="meta.media.0.codec.bit_rate">0</property>
  <property name="meta.attr.0.stream.DURATION.markup">00:01:48.100000000</property>
  <property name="meta.media.1.stream.type">audio</property>
  <property name="meta.media.1.codec.sample_fmt">fltp</property>
  <property name="meta.media.1.codec.sample_rate">48000</property>
  <property name="meta.media.1.codec.channels">2</property>
  <property name="meta.media.1.codec.name">aac</property>
  <property name="meta.media.1.codec.long_name">AAC (Advanced Audio Coding)</property>
  <property name="meta.media.1.codec.bit_rate">0</property>
  <property name="meta.attr.1.stream.title.markup">simple_aac</property>
  <property name="meta.attr.1.stream.DURATION.markup">00:01:47.946000000</property>
  <property name="meta.attr.ENCODER.markup">Lavf58.76.100</property>
  <property name="seekable">1</property>
  <property name="meta.media.sample_aspect_num">1</property>
  <property name="meta.media.sample_aspect_den">1</property>
  <property name="format">3</property>
  <property name="audio_index">1</property>
  <property name="video_index">0</property>
  <property name="meta.media.frame_rate_num">30</property>
  <property name="meta.media.frame_rate_den">1</property>
  <property name="meta.media.colorspace">709</property>
  <property name="meta.media.color_trc">1</property>
  <property name="meta.media.has_b_frames">2</property>
  <property name="meta.media.width">1920</property>
  <property name="meta.media.height">1080</property>
  <property name="meta.media.color_range">mpeg</property>
  <property name="kdenlive:clipname"/>
  <property name="meta.media.top_field_first">0</property>
  <property name="meta.media.progressive">1</property>
  <property name="kdenlive:clip_type">0</property>
  <property name="kdenlive:folderid">28</property>
  <property name="kdenlive:id">31</property>
  <property name="mute_on_pause">0</property>
  <property name="kdenlive:file_size">35940766</property>
  <property name="kdenlive:file_hash">6a989d756cd6bcd3419837bdb0d5cada</property>
  <property name="kdenlive:audio_max1">235</property>
 </chain>
 <chain id="chain39" out="00:00:56.000">
  <property name="length">1681</property>
  <property name="eof">pause</property>
  <property name="resource">video/v4.mkv</property>
  <property name="mlt_service">avformat-novalidate</property>
  <property name="meta.media.nb_streams">2</property>
  <property name="meta.media.0.stream.type">video</property>
  <property name="meta.media.0.stream.frame_rate">30</property>
  <property name="meta.media.0.stream.sample_aspect_ratio">0</property>
  <property name="meta.media.0.codec.width">1920</property>
  <property name="meta.media.0.codec.height">1080</property>
  <property name="meta.media.0.codec.rotate">0</property>
  <property name="meta.media.0.codec.pix_fmt">yuv420p</property>
  <property name="meta.media.0.codec.sample_aspect_ratio">1</property>
  <property name="meta.media.0.codec.colorspace">709</property>
  <property name="meta.media.0.codec.color_trc">1</property>
  <property name="meta.media.0.codec.name">h264</property>
  <property name="meta.media.0.codec.long_name">H.264 / AVC / MPEG-4 AVC / MPEG-4 part 10</property>
  <property name="meta.media.0.codec.bit_rate">0</property>
  <property name="meta.attr.0.stream.DURATION.markup">00:00:56.033000000</property>
  <property name="meta.media.1.stream.type">audio</property>
  <property name="meta.media.1.codec.sample_fmt">fltp</property>
  <property name="meta.media.1.codec.sample_rate">48000</property>
  <property name="meta.media.1.codec.channels">2</property>
  <property name="meta.media.1.codec.name">aac</property>
  <property name="meta.media.1.codec.long_name">AAC (Advanced Audio Coding)</property>
  <property name="meta.media.1.codec.bit_rate">0</property>
  <property name="meta.attr.1.stream.title.markup">simple_aac</property>
  <property name="meta.attr.1.stream.DURATION.markup">00:00:55.914000000</property>
  <property name="meta.attr.ENCODER.markup">Lavf58.76.100</property>
  <property name="seekable">1</property>
  <property name="meta.media.sample_aspect_num">1</property>
  <property name="meta.media.sample_aspect_den">1</property>
  <property name="format">3</property>
  <property name="audio_index">1</property>
  <property name="video_index">0</property>
  <property name="meta.media.frame_rate_num">30</property>
  <property name="meta.media.frame_rate_den">1</property>
  <property name="meta.media.colorspace">709</property>
  <property name="meta.media.color_trc">1</property>
  <property name="meta.media.has_b_frames">2</property>
  <property name="meta.media.width">1920</property>
  <property name="meta.media.height">1080</property>
  <property name="meta.media.color_range">mpeg</property>
  <property name="kdenlive:clipname"/>
  <property name="meta.media.top_field_first">0</property>
  <property name="meta.media.progressive">1</property>
  <property name="kdenlive:clip_type">0</property>
  <property name="kdenlive:folderid">28</property>
  <property name="kdenlive:id">32</property>
  <property name="mute_on_pause">0</property>
  <property name="kdenlive:file_size">18610037</property>
  <property name="kdenlive:file_hash">81782b03d2cfe160b1639ef71a46c7c2</property>
  <property name="kdenlive:audio_max1">1</property>
 </chain>
 <chain id="chain40" out="00:02:33.433">
  <property name="length">4604</property>
  <property name="eof">pause</property>
  <property name="resource">video/v5.mkv</property>
  <property name="mlt_service">avformat-novalidate</property>
  <property name="meta.media.nb_streams">2</property>
  <property name="meta.media.0.stream.type">video</property>
  <property name="meta.media.0.stream.frame_rate">30</property>
  <property name="meta.media.0.stream.sample_aspect_ratio">0</property>
  <property name="meta.media.0.codec.width">1920</property>
  <property name="meta.media.0.codec.height">1080</property>
  <property name="meta.media.0.codec.rotate">0</property>
  <property name="meta.media.0.codec.pix_fmt">yuv420p</property>
  <property name="meta.media.0.codec.sample_aspect_ratio">1</property>
  <property name="meta.media.0.codec.colorspace">709</property>
  <property name="meta.media.0.codec.color_trc">1</property>
  <property name="meta.media.0.codec.name">h264</property>
  <property name="meta.media.0.codec.long_name">H.264 / AVC / MPEG-4 AVC / MPEG-4 part 10</property>
  <property name="meta.media.0.codec.bit_rate">0</property>
  <property name="meta.attr.0.stream.DURATION.markup">00:02:33.466000000</property>
  <property name="meta.media.1.stream.type">audio</property>
  <property name="meta.media.1.codec.sample_fmt">fltp</property>
  <property name="meta.media.1.codec.sample_rate">48000</property>
  <property name="meta.media.1.codec.channels">2</property>
  <property name="meta.media.1.codec.name">aac</property>
  <property name="meta.media.1.codec.long_name">AAC (Advanced Audio Coding)</property>
  <property name="meta.media.1.codec.bit_rate">0</property>
  <property name="meta.attr.1.stream.title.markup">simple_aac</property>
  <property name="meta.attr.1.stream.DURATION.markup">00:02:33.301000000</property>
  <property name="meta.attr.ENCODER.markup">Lavf58.76.100</property>
  <property name="seekable">1</property>
  <property name="meta.media.sample_aspect_num">1</property>
  <property name="meta.media.sample_aspect_den">1</property>
  <property name="format">3</property>
  <property name="audio_index">1</property>
  <property name="video_index">0</property>
  <property name="meta.media.frame_rate_num">30</property>
  <property name="meta.media.frame_rate_den">1</property>
  <property name="meta.media.colorspace">709</property>
  <property name="meta.media.color_trc">1</property>
  <property name="meta.media.has_b_frames">2</property>
  <property name="meta.media.width">1920</property>
  <property name="meta.media.height">1080</property>
  <property name="meta.media.color_range">mpeg</property>
  <property name="kdenlive:clipname"/>
  <property name="meta.media.top_field_first">0</property>
  <property name="meta.media.progressive">1</property>
  <property name="kdenlive:clip_type">0</property>
  <property name="kdenlive:folderid">28</property>
  <property name="kdenlive:id">33</property>
  <property name="mute_on_pause">0</property>
  <property name="kdenlive:file_size">51050949</property>
  <property name="kdenlive:file_hash">b009e4fa30298ce9236bc4c15c744322</property>
  <property name="kdenlive:audio_max1">1</property>
 </chain>
 <chain id="chain41" out="00:03:49.700">
  <property name="length">6892</property>
  <property name="eof">pause</property>
  <property name="resource">ends/end3.mp4</property>
  <property name="mlt_service">avformat-novalidate</property>
  <property name="meta.media.nb_streams">2</property>
  <property name="meta.media.0.stream.type">video</property>
  <property name="meta.media.0.stream.frame_rate">30</property>
  <property name="meta.media.0.stream.sample_aspect_ratio">1</property>
  <property name="meta.media.0.codec.width">1920</property>
  <property name="meta.media.0.codec.height">1080</property>
  <property name="meta.media.0.codec.rotate">0</property>
  <property name="meta.media.0.codec.pix_fmt">yuv420p</property>
  <property name="meta.media.0.codec.sample_aspect_ratio">1</property>
  <property name="meta.media.0.codec.colorspace">709</property>
  <property name="meta.media.0.codec.color_trc">1</property>
  <property name="meta.media.0.codec.name">h264</property>
  <property name="meta.media.0.codec.long_name">H.264 / AVC / MPEG-4 AVC / MPEG-4 part 10</property>
  <property name="meta.media.0.codec.bit_rate">512755</property>
  <property name="meta.attr.0.stream.handler_name.markup">VideoHandler</property>
  <property name="meta.attr.0.stream.vendor_id.markup">[0][0][0][0]</property>
  <property name="meta.media.1.stream.type">audio</property>
  <property name="meta.media.1.codec.sample_fmt">fltp</property>
  <property name="meta.media.1.codec.sample_rate">48000</property>
  <property name="meta.media.1.codec.channels">2</property>
  <property name="meta.media.1.codec.name">aac</property>
  <property name="meta.media.1.codec.long_name">AAC (Advanced Audio Coding)</property>
  <property name="meta.media.1.codec.bit_rate">160499</property>
  <property name="meta.attr.1.stream.handler_name.markup">SoundHandler</property>
  <property name="meta.attr.1.stream.vendor_id.markup">[0][0][0][0]</property>
  <property name="meta.attr.major_brand.markup">isom</property>
  <property name="meta.attr.minor_version.markup">512</property>
  <property name="meta.attr.compatible_brands.markup">isomiso2avc1mp41</property>
  <property name="meta.attr.encoder.markup">Lavf58.76.100</property>
  <property name="seekable">1</property>
  <property name="meta.media.sample_aspect_num">1</property>
  <property name="meta.media.sample_aspect_den">1</property>
  <property name="format">3</property>
  <property name="audio_index">1</property>
  <property name="video_index">0</property>
  <property name="meta.media.frame_rate_num">30</property>
  <property name="meta.media.frame_rate_den">1</property>
  <property name="meta.media.colorspace">709</property>
  <property name="meta.media.color_trc">1</property>
  <property name="meta.media.has_b_frames">2</property>
  <property name="meta.media.width">1920</property>
  <property name="meta.media.height">1080</property>
  <property name="meta.media.color_range">mpeg</property>
  <property name="kdenlive:clipname"/>
  <property name="meta.media.top_field_first">0</property>
  <property name="meta.media.progressive">1</property>
  <property name="kdenlive:clip_type">0</property>
  <property name="kdenlive:folderid">26</property>
  <property name="kdenlive:id">34</property>
  <property name="mute_on_pause">0</property>
  <property name="kdenlive:file_size">19587208</property>
  <property name="kdenlive:file_hash">d56ce840bea96696aba1e18f33fdee50</property>
  <property name="kdenlive:audio_max1">159</property>
 </chain>
 <producer id="producer0" in="00:00:00.000" out="00:28:08.033">
  <property name="length">2147483647</property>
  <property name="eof">continue</property>
  <property name="resource">black</property>
  <property name="aspect_ratio">1</property>
  <property name="mlt_service">color</property>
  <property name="kdenlive:playlistid">black_track</property>
  <property name="mlt_image_format">rgba</property>
  <property name="set.test_audio">0</property>
 </producer>
 <chain id="chain0" out="00:00:58.033">
  <property name="length">1742</property>
  <property name="eof">pause</property>
  <property name="resource">y2mate.is - Whiteboard Animation video with Background Music-r8vvbviIHGE-192k-1695984665.mp3</property>
  <property name="mlt_service">avformat-novalidate</property>
  <property name="seekable">1</property>
  <property name="audio_index">0</property>
  <property name="video_index">-1</property>
  <property name="kdenlive:clipname"/>
  <property name="kdenlive:clip_type">1</property>
  <property name="kdenlive:folderid">-1</property>
  <property name="kdenlive:id">24</property>
  <property name="kdenlive:file_size">1394540</property>
  <property name="kdenlive:file_hash">11277f1f68ebe26944c160de98b0832a</property>
  <property name="kdenlive:audio_max0">157</property>
  <property name="meta.media.nb_streams">1</property>
  <property name="meta.media.0.stream.type">audio</property>
  <property name="meta.media.0.codec.sample_fmt">fltp</property>
  <property name="meta.media.0.codec.sample_rate">48000</property>
  <property name="meta.media.0.codec.channels">2</property>
  <property name="meta.media.0.codec.name">mp3float</property>
  <property name="meta.media.0.codec.long_name">MP3 (MPEG audio layer 3)</property>
  <property name="meta.media.0.codec.bit_rate">192000</property>
  <property name="meta.attr.0.stream.encoder.markup">Lavc60.3.</property>
  <property name="meta.attr.encoder.markup">Lavf60.3.100</property>
  <property name="xml">was here</property>
  <property name="mute_on_pause">0</property>
  <property name="set.test_audio">0</property>
  <property name="set.test_image">1</property>
 </chain>
 <playlist id="playlist0">
  <property name="kdenlive:audio_track">1</property>
  <blank length="00:07:37.500"/>
  <entry producer="chain0" in="00:00:00.433" out="00:00:58.033">
   <property name="kdenlive:id">24</property>
   <property name="kdenlive:activeeffect">0</property>
   <filter id="filter0">
    <property name="window">75</property>
    <property name="max_gain">20dB</property>
    <property name="level">00:00:00.433=-25</property>
    <property name="mlt_service">volume</property>
    <property name="kdenlive_id">volume</property>
    <property name="kdenlive:collapsed">0</property>
   </filter>
  </entry>
  <entry producer="chain0" in="00:00:00.433" out="00:00:09.667">
   <property name="kdenlive:id">24</property>
   <filter id="filter1">
    <property name="window">75</property>
    <property name="max_gain">20dB</property>
    <property name="level">00:00:00.433=-25</property>
    <property name="mlt_service">volume</property>
    <property name="kdenlive_id">volume</property>
    <property name="kdenlive:collapsed">0</property>
   </filter>
  </entry>
  <entry producer="chain0" in="00:00:09.700" out="00:00:13.167">
   <property name="kdenlive:id">24</property>
   <filter id="filter2">
    <property name="window">75</property>
    <property name="max_gain">20dB</property>
    <property name="level">00:00:09.700=-15</property>
    <property name="mlt_service">volume</property>
    <property name="kdenlive_id">volume</property>
    <property name="kdenlive:collapsed">0</property>
   </filter>
   <filter id="filter3" in="00:00:12.500" out="00:00:13.167">
    <property name="window">75</property>
    <property name="max_gain">20dB</property>
    <property name="mlt_service">volume</property>
    <property name="kdenlive_id">fadeout</property>
    <property name="gain">1</property>
    <property name="end">0</property>
    <property name="kdenlive:collapsed">0</property>
   </filter>
   <filter id="filter4" in="00:00:09.700" out="00:00:10.500">
    <property name="window">75</property>
    <property name="max_gain">20dB</property>
    <property name="mlt_service">volume</property>
    <property name="kdenlive_id">fadein</property>
    <property name="gain">0</property>
    <property name="end">1</property>
    <property name="kdenlive:collapsed">0</property>
   </filter>
  </entry>
  <entry producer="chain0" in="00:00:13.200" out="00:00:53.700">
   <property name="kdenlive:id">24</property>
   <filter id="filter5">
    <property name="window">75</property>
    <property name="max_gain">20dB</property>
    <property name="level">00:00:13.200=-25</property>
    <property name="mlt_service">volume</property>
    <property name="kdenlive_id">volume</property>
   </filter>
  </entry>
  <entry producer="chain0" in="00:00:53.733" out="00:00:56.333">
   <property name="kdenlive:id">24</property>
   <filter id="filter6">
    <property name="window">75</property>
    <property name="max_gain">20dB</property>
    <property name="level">00:00:53.733=-15</property>
    <property name="mlt_service">volume</property>
    <property name="kdenlive_id">volume</property>
    <property name="kdenlive:collapsed">0</property>
   </filter>
   <filter id="filter7" in="00:00:53.733" out="00:00:54.233">
    <property name="window">75</property>
    <property name="max_gain">20dB</property>
    <property name="mlt_service">volume</property>
    <property name="kdenlive_id">fadein</property>
    <property name="gain">0</property>
    <property name="end">1</property>
    <property name="kdenlive:collapsed">0</property>
   </filter>
   <filter id="filter8" in="00:00:55.867" out="00:00:56.333">
    <property name="window">75</property>
    <property name="max_gain">20dB</property>
    <property name="mlt_service">volume</property>
    <property name="kdenlive_id">fadeout</property>
    <property name="gain">1</property>
    <property name="end">0</property>
    <property name="kdenlive:collapsed">0</property>
   </filter>
  </entry>
  <entry producer="chain0" in="00:00:56.367" out="00:00:58.033">
   <property name="kdenlive:id">24</property>
   <filter id="filter9">
    <property name="window">75</property>
    <property name="max_gain">20dB</property>
    <property name="level">00:00:56.367=-25</property>
    <property name="mlt_service">volume</property>
    <property name="kdenlive_id">volume</property>
   </filter>
  </entry>
  <entry producer="chain0" in="00:00:00.433" out="00:00:31.167">
   <property name="kdenlive:id">24</property>
   <filter id="filter10">
    <property name="window">75</property>
    <property name="max_gain">20dB</property>
    <property name="level">00:00:00.433=-25</property>
    <property name="mlt_service">volume</property>
    <property name="kdenlive_id">volume</property>
    <property name="kdenlive:collapsed">0</property>
   </filter>
  </entry>
  <entry producer="chain0" in="00:00:31.200" out="00:00:34.200">
   <property name="kdenlive:id">24</property>
   <filter id="filter11">
    <property name="window">75</property>
    <property name="max_gain">20dB</property>
    <property name="level">00:00:31.200=-14</property>
    <property name="mlt_service">volume</property>
    <property name="kdenlive_id">volume</property>
    <property name="kdenlive:collapsed">0</property>
   </filter>
   <filter id="filter12" in="00:00:31.200" out="00:00:32.033">
    <property name="window">75</property>
    <property name="max_gain">20dB</property>
    <property name="mlt_service">volume</property>
    <property name="kdenlive_id">fadein</property>
    <property name="gain">0</property>
    <property name="end">1</property>
    <property name="kdenlive:collapsed">0</property>
   </filter>
   <filter id="filter13" in="00:00:33.833" out="00:00:34.200">
    <property name="window">75</property>
    <property name="max_gain">20dB</property>
    <property name="mlt_service">volume</property>
    <property name="kdenlive_id">fadeout</property>
    <property name="gain">1</property>
    <property name="end">0</property>
    <property name="kdenlive:collapsed">0</property>
   </filter>
  </entry>
  <entry producer="chain0" in="00:00:34.233" out="00:00:58.033">
   <property name="kdenlive:id">24</property>
   <filter id="filter14">
    <property name="window">75</property>
    <property name="max_gain">20dB</property>
    <property name="level">00:00:34.233=-25</property>
    <property name="mlt_service">volume</property>
    <property name="kdenlive_id">volume</property>
   </filter>
  </entry>
  <entry producer="chain0" in="00:00:00.433" out="00:00:43.700">
   <property name="kdenlive:id">24</property>
   <filter id="filter15">
    <property name="window">75</property>
    <property name="max_gain">20dB</property>
    <property name="level">00:00:00.433=-25</property>
    <property name="mlt_service">volume</property>
    <property name="kdenlive_id">volume</property>
    <property name="kdenlive:collapsed">0</property>
   </filter>
  </entry>
  <entry producer="chain0" in="00:00:43.733" out="00:00:58.033">
   <property name="kdenlive:id">24</property>
   <filter id="filter16">
    <property name="window">75</property>
    <property name="max_gain">20dB</property>
    <property name="level">00:00:43.733=-10</property>
    <property name="mlt_service">volume</property>
    <property name="kdenlive_id">volume</property>
    <property name="kdenlive:collapsed">0</property>
   </filter>
   <filter id="filter17" in="00:00:43.733" out="00:00:45.000">
    <property name="window">75</property>
    <property name="max_gain">20dB</property>
    <property name="mlt_service">volume</property>
    <property name="kdenlive_id">fadein</property>
    <property name="gain">0</property>
    <property name="end">1</property>
    <property name="kdenlive:collapsed">0</property>
   </filter>
  </entry>
 </playlist>
 <playlist id="playlist1">
  <property name="kdenlive:audio_track">1</property>
 </playlist>
 <tractor id="tractor0" in="00:00:00.000" out="00:11:28.000">
  <property name="kdenlive:audio_track">1</property>
  <property name="kdenlive:trackheight">69</property>
  <property name="kdenlive:timeline_active">1</property>
  <property name="kdenlive:collapsed">0</property>
  <property name="kdenlive:thumbs_format"/>
  <property name="kdenlive:audio_rec"/>
  <track hide="video" producer="playlist0"/>
  <track hide="video" producer="playlist1"/>
  <filter id="filter18">
   <property name="window">75</property>
   <property name="max_gain">20dB</property>
   <property name="mlt_service">volume</property>
   <property name="internal_added">237</property>
   <property name="disable">1</property>
  </filter>
  <filter id="filter19">
   <property name="channel">-1</property>
   <property name="mlt_service">panner</property>
   <property name="internal_added">237</property>
   <property name="start">0.5</property>
   <property name="disable">1</property>
  </filter>
  <filter id="filter20">
   <property name="iec_scale">0</property>
   <property name="mlt_service">audiolevel</property>
   <property name="dbpeak">1</property>
   <property name="disable">1</property>
  </filter>
 </tractor>
 <chain id="chain1" out="00:00:01.033">
  <property name="length">32</property>
  <property name="eof">pause</property>
  <property name="resource">/home/pila/Desktop/sounds/a.mp3</property>
  <property name="mlt_service">avformat-novalidate</property>
  <property name="seekable">1</property>
  <property name="audio_index">0</property>
  <property name="video_index">-1</property>
  <property name="kdenlive:clipname"/>
  <property name="kdenlive:clip_type">1</property>
  <property name="kdenlive:folderid">17</property>
  <property name="kdenlive:id">5</property>
  <property name="kdenlive:file_size">13797</property>
  <property name="kdenlive:file_hash">440eb21127734b02b114d87e59bca693</property>
  <property name="kdenlive:audio_max0">138</property>
  <property name="meta.media.nb_streams">1</property>
  <property name="meta.media.0.stream.type">audio</property>
  <property name="meta.media.0.codec.sample_fmt">fltp</property>
  <property name="meta.media.0.codec.sample_rate">48000</property>
  <property name="meta.media.0.codec.channels">2</property>
  <property name="meta.media.0.codec.name">mp3float</property>
  <property name="meta.media.0.codec.long_name">MP3 (MPEG audio layer 3)</property>
  <property name="meta.media.0.codec.bit_rate">101867</property>
  <property name="meta.attr.0.stream.encoder.markup">Lavf</property>
  <property name="meta.attr.encoder.markup">Lavf58.76.100</property>
  <property name="xml">was here</property>
  <property name="mute_on_pause">0</property>
  <property name="set.test_audio">0</property>
  <property name="set.test_image">1</property>
 </chain>
 <chain id="chain3" out="00:00:01.033">
  <property name="length">32</property>
  <property name="eof">pause</property>
  <property name="resource">/home/pila/Desktop/sounds/b.mp3</property>
  <property name="mlt_service">avformat-novalidate</property>
  <property name="seekable">1</property>
  <property name="audio_index">0</property>
  <property name="video_index">-1</property>
  <property name="kdenlive:clipname"/>
  <property name="kdenlive:clip_type">1</property>
  <property name="kdenlive:folderid">17</property>
  <property name="kdenlive:id">6</property>
  <property name="kdenlive:file_size">8829</property>
  <property name="kdenlive:file_hash">665f81080d781e6b92729c613033c90c</property>
  <property name="kdenlive:audio_max0">96</property>
  <property name="meta.media.nb_streams">1</property>
  <property name="meta.media.0.stream.type">audio</property>
  <property name="meta.media.0.codec.sample_fmt">fltp</property>
  <property name="meta.media.0.codec.sample_rate">48000</property>
  <property name="meta.media.0.codec.channels">2</property>
  <property name="meta.media.0.codec.name">mp3float</property>
  <property name="meta.media.0.codec.long_name">MP3 (MPEG audio layer 3)</property>
  <property name="meta.media.0.codec.bit_rate">65067</property>
  <property name="meta.attr.0.stream.encoder.markup">Lavf</property>
  <property name="meta.attr.encoder.markup">Lavf58.76.100</property>
  <property name="xml">was here</property>
  <property name="mute_on_pause">0</property>
  <property name="set.test_audio">0</property>
  <property name="set.test_image">1</property>
 </chain>
 <chain id="chain4" out="00:00:00.833">
  <property name="length">26</property>
  <property name="eof">pause</property>
  <property name="resource">/home/pila/Desktop/sounds/e.mp3</property>
  <property name="mlt_service">avformat-novalidate</property>
  <property name="seekable">1</property>
  <property name="audio_index">0</property>
  <property name="video_index">-1</property>
  <property name="kdenlive:clipname"/>
  <property name="kdenlive:clip_type">1</property>
  <property name="kdenlive:folderid">17</property>
  <property name="kdenlive:id">9</property>
  <property name="kdenlive:file_size">7605</property>
  <property name="kdenlive:file_hash">777a24410423c3c7b60701570fc5a674</property>
  <property name="kdenlive:audio_max0">159</property>
  <property name="meta.media.nb_streams">1</property>
  <property name="meta.media.0.stream.type">audio</property>
  <property name="meta.media.0.codec.sample_fmt">fltp</property>
  <property name="meta.media.0.codec.sample_rate">48000</property>
  <property name="meta.media.0.codec.channels">2</property>
  <property name="meta.media.0.codec.name">mp3float</property>
  <property name="meta.media.0.codec.long_name">MP3 (MPEG audio layer 3)</property>
  <property name="meta.media.0.codec.bit_rate">70000</property>
  <property name="meta.attr.0.stream.encoder.markup">Lavf</property>
  <property name="meta.attr.encoder.markup">Lavf58.76.100</property>
  <property name="xml">was here</property>
  <property name="mute_on_pause">0</property>
  <property name="set.test_audio">0</property>
  <property name="set.test_image">1</property>
 </chain>
 <chain id="chain2" out="00:00:00.700">
  <property name="length">22</property>
  <property name="eof">pause</property>
  <property name="resource">/home/pila/Desktop/sounds/d.mp3</property>
  <property name="mlt_service">avformat-novalidate</property>
  <property name="seekable">1</property>
  <property name="audio_index">0</property>
  <property name="video_index">-1</property>
  <property name="kdenlive:clipname"/>
  <property name="kdenlive:clip_type">1</property>
  <property name="kdenlive:folderid">17</property>
  <property name="kdenlive:id">8</property>
  <property name="kdenlive:file_size">5397</property>
  <property name="kdenlive:file_hash">e54b7aa0df27049d8dc80a1a8ac29265</property>
  <property name="kdenlive:audio_max0">158</property>
  <property name="meta.media.nb_streams">1</property>
  <property name="meta.media.0.stream.type">audio</property>
  <property name="meta.media.0.codec.sample_fmt">fltp</property>
  <property name="meta.media.0.codec.sample_rate">48000</property>
  <property name="meta.media.0.codec.channels">2</property>
  <property name="meta.media.0.codec.name">mp3float</property>
  <property name="meta.media.0.codec.long_name">MP3 (MPEG audio layer 3)</property>
  <property name="meta.media.0.codec.bit_rate">59467</property>
  <property name="meta.attr.0.stream.encoder.markup">Lavf</property>
  <property name="meta.attr.encoder.markup">Lavf58.76.100</property>
  <property name="xml">was here</property>
  <property name="mute_on_pause">0</property>
  <property name="set.test_audio">0</property>
  <property name="set.test_image">1</property>
 </chain>
 <chain id="chain5" out="00:00:01.333">
  <property name="length">41</property>
  <property name="eof">pause</property>
  <property name="resource">/home/pila/Desktop/sounds/c.mp3</property>
  <property name="mlt_service">avformat-novalidate</property>
  <property name="seekable">1</property>
  <property name="audio_index">0</property>
  <property name="video_index">-1</property>
  <property name="kdenlive:clipname"/>
  <property name="kdenlive:clip_type">1</property>
  <property name="kdenlive:folderid">17</property>
  <property name="kdenlive:id">7</property>
  <property name="kdenlive:file_size">21645</property>
  <property name="kdenlive:file_hash">44a416be432b9a28f677c99d795490fa</property>
  <property name="kdenlive:audio_max0">66</property>
  <property name="meta.media.nb_streams">1</property>
  <property name="meta.media.0.stream.type">audio</property>
  <property name="meta.media.0.codec.sample_fmt">fltp</property>
  <property name="meta.media.0.codec.sample_rate">48000</property>
  <property name="meta.media.0.codec.channels">2</property>
  <property name="meta.media.0.codec.name">mp3float</property>
  <property name="meta.media.0.codec.long_name">MP3 (MPEG audio layer 3)</property>
  <property name="meta.media.0.codec.bit_rate">126316</property>
  <property name="meta.attr.0.stream.encoder.markup">Lavf</property>
  <property name="meta.attr.encoder.markup">Lavf58.76.100</property>
  <property name="xml">was here</property>
  <property name="mute_on_pause">0</property>
  <property name="set.test_audio">0</property>
  <property name="set.test_image">1</property>
 </chain>
 <chain id="chain7" out="00:00:00.633">
  <property name="length">20</property>
  <property name="eof">pause</property>
  <property name="resource">/home/pila/Desktop/sounds/f.mp3</property>
  <property name="mlt_service">avformat-novalidate</property>
  <property name="seekable">1</property>
  <property name="audio_index">0</property>
  <property name="video_index">-1</property>
  <property name="kdenlive:clipname"/>
  <property name="kdenlive:clip_type">1</property>
  <property name="kdenlive:folderid">17</property>
  <property name="kdenlive:id">10</property>
  <property name="kdenlive:file_size">4149</property>
  <property name="kdenlive:file_hash">5cae1dd848ebde6517f88af364fc8580</property>
  <property name="kdenlive:audio_max0">174</property>
  <property name="meta.media.nb_streams">1</property>
  <property name="meta.media.0.stream.type">audio</property>
  <property name="meta.media.0.codec.sample_fmt">fltp</property>
  <property name="meta.media.0.codec.sample_rate">48000</property>
  <property name="meta.media.0.codec.channels">2</property>
  <property name="meta.media.0.codec.name">mp3float</property>
  <property name="meta.media.0.codec.long_name">MP3 (MPEG audio layer 3)</property>
  <property name="meta.media.0.codec.bit_rate">48857</property>
  <property name="meta.attr.0.stream.encoder.markup">Lavf</property>
  <property name="meta.attr.encoder.markup">Lavf58.76.100</property>
  <property name="xml">was here</property>
  <property name="mute_on_pause">0</property>
  <property name="set.test_audio">0</property>
  <property name="set.test_image">1</property>
 </chain>
 <playlist id="playlist2">
  <property name="kdenlive:audio_track">1</property>
  <blank length="00:07:37.467"/>
  <entry producer="chain1" in="00:00:00.000" out="00:00:01.033">
   <property name="kdenlive:id">5</property>
  </entry>
  <blank length="00:00:14.467"/>
  <entry producer="chain3" in="00:00:00.000" out="00:00:01.033">
   <property name="kdenlive:id">6</property>
  </entry>
  <entry producer="chain3" in="00:00:00.000" out="00:00:01.033">
   <property name="kdenlive:id">6</property>
  </entry>
  <blank length="00:00:00.500"/>
  <entry producer="chain3" in="00:00:00.000" out="00:00:01.033">
   <property name="kdenlive:id">6</property>
  </entry>
  <blank length="00:00:00.467"/>
  <entry producer="chain3" in="00:00:00.000" out="00:00:01.033">
   <property name="kdenlive:id">6</property>
  </entry>
  <blank length="00:00:00.933"/>
  <entry producer="chain4" in="00:00:00.000" out="00:00:00.400">
   <property name="kdenlive:id">9</property>
  </entry>
  <entry producer="chain2" in="00:00:00.167" out="00:00:00.700">
   <property name="kdenlive:id">8</property>
  </entry>
  <blank length="00:00:11.100"/>
  <entry producer="chain5" in="00:00:00.000" out="00:00:01.333">
   <property name="kdenlive:id">7</property>
  </entry>
  <entry producer="chain1" in="00:00:00.000" out="00:00:01.033">
   <property name="kdenlive:id">5</property>
  </entry>
  <entry producer="chain2" in="00:00:00.200" out="00:00:00.700">
   <property name="kdenlive:id">8</property>
  </entry>
  <blank length="00:00:01.433"/>
  <entry producer="chain3" in="00:00:00.000" out="00:00:01.033">
   <property name="kdenlive:id">6</property>
  </entry>
  <blank length="00:00:00.833"/>
  <entry producer="chain2" in="00:00:00.000" out="00:00:00.567">
   <property name="kdenlive:id">8</property>
  </entry>
  <entry producer="chain2" in="00:00:00.000" out="00:00:00.700">
   <property name="kdenlive:id">8</property>
  </entry>
  <blank length="00:00:01.133"/>
  <entry producer="chain3" in="00:00:00.000" out="00:00:01.033">
   <property name="kdenlive:id">6</property>
  </entry>
  <blank length="00:00:00.033"/>
  <entry producer="chain4" in="00:00:00.000" out="00:00:00.833">
   <property name="kdenlive:id">9</property>
  </entry>
  <blank length="00:00:03.200"/>
  <entry producer="chain5" in="00:00:00.000" out="00:00:01.333">
   <property name="kdenlive:id">7</property>
  </entry>
  <entry producer="chain1" in="00:00:00.000" out="00:00:01.033">
   <property name="kdenlive:id">5</property>
  </entry>
  <entry producer="chain4" in="00:00:00.000" out="00:00:00.833">
   <property name="kdenlive:id">9</property>
  </entry>
  <blank length="00:00:02.467"/>
  <entry producer="chain3" in="00:00:00.000" out="00:00:01.033">
   <property name="kdenlive:id">6</property>
  </entry>
  <blank length="00:00:03.267"/>
  <entry producer="chain3" in="00:00:00.000" out="00:00:01.033">
   <property name="kdenlive:id">6</property>
  </entry>
  <blank length="00:00:00.333"/>
  <entry producer="chain3" in="00:00:00.000" out="00:00:01.033">
   <property name="kdenlive:id">6</property>
  </entry>
  <blank length="00:00:03.300"/>
  <entry producer="chain3" in="00:00:00.000" out="00:00:01.033">
   <property name="kdenlive:id">6</property>
  </entry>
  <blank length="00:00:01.467"/>
  <entry producer="chain3" in="00:00:00.000" out="00:00:01.033">
   <property name="kdenlive:id">6</property>
  </entry>
  <blank length="00:00:00.133"/>
  <entry producer="chain4" in="00:00:00.000" out="00:00:00.833">
   <property name="kdenlive:id">9</property>
  </entry>
  <blank length="00:00:01.967"/>
  <entry producer="chain5" in="00:00:00.000" out="00:00:01.333">
   <property name="kdenlive:id">7</property>
  </entry>
  <entry producer="chain1" in="00:00:00.000" out="00:00:01.033">
   <property name="kdenlive:id">5</property>
  </entry>
  <entry producer="chain2" in="00:00:00.000" out="00:00:00.700">
   <property name="kdenlive:id">8</property>
  </entry>
  <blank length="00:00:01.667"/>
  <entry producer="chain3" in="00:00:00.000" out="00:00:01.033">
   <property name="kdenlive:id">6</property>
  </entry>
  <blank length="00:00:00.533"/>
  <entry producer="chain3" in="00:00:00.000" out="00:00:01.033">
   <property name="kdenlive:id">6</property>
  </entry>
  <blank length="00:00:03.900"/>
  <entry producer="chain3" in="00:00:00.000" out="00:00:01.033">
   <property name="kdenlive:id">6</property>
  </entry>
  <blank length="00:00:00.233"/>
  <entry producer="chain4" in="00:00:00.000" out="00:00:00.833">
   <property name="kdenlive:id">9</property>
  </entry>
  <blank length="00:00:02.267"/>
  <entry producer="chain5" in="00:00:00.000" out="00:00:01.333">
   <property name="kdenlive:id">7</property>
  </entry>
  <entry producer="chain3" in="00:00:00.167" out="00:00:01.033">
   <property name="kdenlive:id">6</property>
  </entry>
  <entry producer="chain4" in="00:00:00.000" out="00:00:00.833">
   <property name="kdenlive:id">9</property>
  </entry>
  <blank length="00:00:00.367"/>
  <entry producer="chain7" in="00:00:00.000" out="00:00:00.633">
   <property name="kdenlive:id">10</property>
  </entry>
  <entry producer="chain7" in="00:00:00.000" out="00:00:00.633">
   <property name="kdenlive:id">10</property>
  </entry>
  <blank length="00:00:00.700"/>
  <entry producer="chain3" in="00:00:00.000" out="00:00:01.033">
   <property name="kdenlive:id">6</property>
  </entry>
  <blank length="00:00:00.767"/>
  <entry producer="chain2" in="00:00:00.000" out="00:00:00.700">
   <property name="kdenlive:id">8</property>
  </entry>
  <blank length="00:00:00.800"/>
  <entry producer="chain7" in="00:00:00.000" out="00:00:00.633">
   <property name="kdenlive:id">10</property>
  </entry>
  <blank length="00:00:02.467"/>
  <entry producer="chain5" in="00:00:00.000" out="00:00:01.333">
   <property name="kdenlive:id">7</property>
  </entry>
  <entry producer="chain1" in="00:00:00.000" out="00:00:01.033">
   <property name="kdenlive:id">5</property>
  </entry>
  <blank length="00:00:01.300"/>
  <entry producer="chain3" in="00:00:00.000" out="00:00:01.033">
   <property name="kdenlive:id">6</property>
  </entry>
  <entry producer="chain2" in="00:00:00.200" out="00:00:00.700">
   <property name="kdenlive:id">8</property>
  </entry>
  <blank length="00:00:00.333"/>
  <entry producer="chain3" in="00:00:00.000" out="00:00:01.033">
   <property name="kdenlive:id">6</property>
  </entry>
  <entry producer="chain2" in="00:00:00.200" out="00:00:00.700">
   <property name="kdenlive:id">8</property>
  </entry>
  <blank length="00:00:00.767"/>
  <entry producer="chain3" in="00:00:00.000" out="00:00:01.033">
   <property name="kdenlive:id">6</property>
  </entry>
  <entry producer="chain2" in="00:00:00.200" out="00:00:00.700">
   <property name="kdenlive:id">8</property>
  </entry>
  <blank length="00:00:03.733"/>
  <entry producer="chain5" in="00:00:00.000" out="00:00:01.333">
   <property name="kdenlive:id">7</property>
  </entry>
  <entry producer="chain1" in="00:00:00.000" out="00:00:01.033">
   <property name="kdenlive:id">5</property>
  </entry>
  <blank length="00:00:01.633"/>
  <entry producer="chain3" in="00:00:00.000" out="00:00:01.033">
   <property name="kdenlive:id">6</property>
  </entry>
  <blank length="00:00:00.633"/>
  <entry producer="chain4" in="00:00:00.000" out="00:00:00.833">
   <property name="kdenlive:id">9</property>
  </entry>
  <blank length="00:00:06.800"/>
  <entry producer="chain3" in="00:00:00.000" out="00:00:01.033">
   <property name="kdenlive:id">6</property>
  </entry>
  <entry producer="chain2" in="00:00:00.200" out="00:00:00.700">
   <property name="kdenlive:id">8</property>
  </entry>
  <blank length="00:00:04.833"/>
  <entry producer="chain3" in="00:00:00.000" out="00:00:01.033">
   <property name="kdenlive:id">6</property>
  </entry>
  <blank length="00:00:00.200"/>
  <entry producer="chain2" in="00:00:00.200" out="00:00:00.700">
   <property name="kdenlive:id">8</property>
  </entry>
  <blank length="00:00:14.067"/>
  <entry producer="chain5" in="00:00:00.000" out="00:00:01.333">
   <property name="kdenlive:id">7</property>
  </entry>
  <entry producer="chain1" in="00:00:00.000" out="00:00:01.033">
   <property name="kdenlive:id">5</property>
  </entry>
  <blank length="00:00:04.767"/>
  <entry producer="chain3" in="00:00:00.000" out="00:00:01.033">
   <property name="kdenlive:id">6</property>
  </entry>
  <blank length="00:00:01.033"/>
  <entry producer="chain2" in="00:00:00.200" out="00:00:00.700">
   <property name="kdenlive:id">8</property>
  </entry>
  <blank length="00:00:05.333"/>
  <entry producer="chain3" in="00:00:00.000" out="00:00:01.033">
   <property name="kdenlive:id">6</property>
  </entry>
  <entry producer="chain2" in="00:00:00.200" out="00:00:00.700">
   <property name="kdenlive:id">8</property>
  </entry>
  <blank length="00:00:02.267"/>
  <entry producer="chain3" in="00:00:00.000" out="00:00:01.033">
   <property name="kdenlive:id">6</property>
  </entry>
  <entry producer="chain2" in="00:00:00.200" out="00:00:00.700">
   <property name="kdenlive:id">8</property>
  </entry>
  <blank length="00:00:05.533"/>
  <entry producer="chain5" in="00:00:00.000" out="00:00:01.333">
   <property name="kdenlive:id">7</property>
  </entry>
  <entry producer="chain3" in="00:00:00.167" out="00:00:01.033">
   <property name="kdenlive:id">6</property>
  </entry>
  <entry producer="chain4" in="00:00:00.000" out="00:00:00.833">
   <property name="kdenlive:id">9</property>
  </entry>
  <blank length="00:00:04.667"/>
  <entry producer="chain3" in="00:00:00.000" out="00:00:01.033">
   <property name="kdenlive:id">6</property>
  </entry>
  <entry producer="chain2" in="00:00:00.200" out="00:00:00.700">
   <property name="kdenlive:id">8</property>
  </entry>
  <blank length="00:00:00.867"/>
  <entry producer="chain3" in="00:00:00.000" out="00:00:01.033">
   <property name="kdenlive:id">6</property>
  </entry>
  <entry producer="chain2" in="00:00:00.200" out="00:00:00.700">
   <property name="kdenlive:id">8</property>
  </entry>
  <blank length="00:00:02.100"/>
  <entry producer="chain7" in="00:00:00.000" out="00:00:00.633">
   <property name="kdenlive:id">10</property>
  </entry>
  <entry producer="chain2" in="00:00:00.200" out="00:00:00.700">
   <property name="kdenlive:id">8</property>
  </entry>
  <blank length="00:00:10.800"/>
  <entry producer="chain5" in="00:00:00.000" out="00:00:01.333">
   <property name="kdenlive:id">7</property>
  </entry>
  <entry producer="chain3" in="00:00:00.167" out="00:00:01.033">
   <property name="kdenlive:id">6</property>
  </entry>
  <entry producer="chain4" in="00:00:00.000" out="00:00:00.833">
   <property name="kdenlive:id">9</property>
  </entry>
  <blank length="00:00:01.333"/>
  <entry producer="chain4" in="00:00:00.000" out="00:00:00.833">
   <property name="kdenlive:id">9</property>
  </entry>
  <blank length="00:00:02.300"/>
  <entry producer="chain4" in="00:00:00.000" out="00:00:00.833">
   <property name="kdenlive:id">9</property>
  </entry>
  <blank length="00:00:05.333"/>
  <entry producer="chain4" in="00:00:00.000" out="00:00:00.833">
   <property name="kdenlive:id">9</property>
  </entry>
  <blank length="00:00:15.233"/>
  <entry producer="chain5" in="00:00:00.000" out="00:00:01.333">
   <property name="kdenlive:id">7</property>
  </entry>
 </playlist>
 <playlist id="playlist3">
  <property name="kdenlive:audio_track">1</property>
 </playlist>
 <tractor id="tractor1" in="00:00:00.000" out="00:11:28.000">
  <property name="kdenlive:audio_track">1</property>
  <property name="kdenlive:trackheight">69</property>
  <property name="kdenlive:timeline_active">1</property>
  <property name="kdenlive:collapsed">28</property>
  <property name="kdenlive:thumbs_format"/>
  <property name="kdenlive:audio_rec"/>
  <track hide="video" producer="playlist2"/>
  <track hide="video" producer="playlist3"/>
  <filter id="filter21">
   <property name="window">75</property>
   <property name="max_gain">20dB</property>
   <property name="level">-12.7621</property>
   <property name="mlt_service">volume</property>
   <property name="internal_added">237</property>
   <property name="disable">0</property>
  </filter>
  <filter id="filter22">
   <property name="channel">-1</property>
   <property name="mlt_service">panner</property>
   <property name="internal_added">237</property>
   <property name="start">0.5</property>
   <property name="disable">1</property>
  </filter>
  <filter id="filter23">
   <property name="iec_scale">0</property>
   <property name="mlt_service">audiolevel</property>
   <property name="dbpeak">1</property>
   <property name="disable">1</property>
  </filter>
 </tractor>
 <chain id="chain6" out="00:06:36.800">
  <property name="length">11905</property>
  <property name="eof">pause</property>
  <property name="resource">ends/end4.mp4</property>
  <property name="mlt_service">avformat-novalidate</property>
  <property name="seekable">1</property>
  <property name="format">3</property>
  <property name="audio_index">1</property>
  <property name="video_index">0</property>
  <property name="kdenlive:clipname"/>
  <property name="kdenlive:clip_type">0</property>
  <property name="kdenlive:folderid">26</property>
  <property name="kdenlive:id">37</property>
  <property name="mute_on_pause">0</property>
  <property name="kdenlive:file_size">33148638</property>
  <property name="kdenlive:file_hash">b9275f5db7ee6b7c4c69470110731dba</property>
  <property name="kdenlive:audio_max1">175</property>
  <property name="meta.media.nb_streams">2</property>
  <property name="meta.media.0.stream.type">video</property>
  <property name="meta.media.0.stream.frame_rate">30</property>
  <property name="meta.media.0.stream.sample_aspect_ratio">1</property>
  <property name="meta.media.0.codec.width">1920</property>
  <property name="meta.media.0.codec.height">1080</property>
  <property name="meta.media.0.codec.rotate">0</property>
  <property name="meta.media.0.codec.pix_fmt">yuv420p</property>
  <property name="meta.media.0.codec.sample_aspect_ratio">1</property>
  <property name="meta.media.0.codec.colorspace">709</property>
  <property name="meta.media.0.codec.color_trc">1</property>
  <property name="meta.media.0.codec.name">h264</property>
  <property name="meta.media.0.codec.long_name">H.264 / AVC / MPEG-4 AVC / MPEG-4 part 10</property>
  <property name="meta.media.0.codec.bit_rate">498836</property>
  <property name="meta.attr.0.stream.handler_name.markup">VideoHandler</property>
  <property name="meta.attr.0.stream.vendor_id.markup">[0][0][0][0]</property>
  <property name="meta.media.1.stream.type">audio</property>
  <property name="meta.media.1.codec.sample_fmt">fltp</property>
  <property name="meta.media.1.codec.sample_rate">48000</property>
  <property name="meta.media.1.codec.channels">2</property>
  <property name="meta.media.1.codec.name">aac</property>
  <property name="meta.media.1.codec.long_name">AAC (Advanced Audio Coding)</property>
  <property name="meta.media.1.codec.bit_rate">160599</property>
  <property name="meta.attr.1.stream.handler_name.markup">SoundHandler</property>
  <property name="meta.attr.1.stream.vendor_id.markup">[0][0][0][0]</property>
  <property name="meta.attr.major_brand.markup">isom</property>
  <property name="meta.attr.minor_version.markup">512</property>
  <property name="meta.attr.compatible_brands.markup">isomiso2avc1mp41</property>
  <property name="meta.attr.encoder.markup">Lavf58.76.100</property>
  <property name="meta.media.sample_aspect_num">1</property>
  <property name="meta.media.sample_aspect_den">1</property>
  <property name="meta.media.frame_rate_num">30</property>
  <property name="meta.media.frame_rate_den">1</property>
  <property name="meta.media.colorspace">709</property>
  <property name="meta.media.color_trc">1</property>
  <property name="meta.media.has_b_frames">2</property>
  <property name="meta.media.width">1920</property>
  <property name="meta.media.height">1080</property>
  <property name="meta.media.color_range">mpeg</property>
  <property name="xml">was here</property>
  <property name="meta.media.top_field_first">0</property>
  <property name="meta.media.progressive">1</property>
  <property name="set.test_audio">0</property>
  <property name="set.test_image">1</property>
 </chain>
 <chain id="chain8" out="00:02:10.433">
  <property name="length">3914</property>
  <property name="eof">pause</property>
  <property name="resource">mySounds/s8.mp3</property>
  <property name="mlt_service">avformat-novalidate</property>
  <property name="seekable">1</property>
  <property name="audio_index">0</property>
  <property name="video_index">-1</property>
  <property name="kdenlive:clipname"/>
  <property name="kdenlive:clip_type">1</property>
  <property name="kdenlive:folderid">38</property>
  <property name="kdenlive:id">22</property>
  <property name="kdenlive:file_size">1891935</property>
  <property name="kdenlive:file_hash">3e91ee69b54ebb8c413acf4ce4f1bc1f</property>
  <property name="kdenlive:audio_max0">163</property>
  <property name="meta.media.nb_streams">1</property>
  <property name="meta.media.0.stream.type">audio</property>
  <property name="meta.media.0.codec.sample_fmt">fltp</property>
  <property name="meta.media.0.codec.sample_rate">44100</property>
  <property name="meta.media.0.codec.channels">2</property>
  <property name="meta.media.0.codec.name">mp3float</property>
  <property name="meta.media.0.codec.long_name">MP3 (MPEG audio layer 3)</property>
  <property name="meta.media.0.codec.bit_rate">115997</property>
  <property name="meta.attr.0.stream.encoder.markup">LAME3.100</property>
  <property name="xml">was here</property>
  <property name="mute_on_pause">0</property>
  <property name="set.test_audio">0</property>
  <property name="set.test_image">1</property>
 </chain>
 <chain id="chain9" out="00:01:48.033">
  <property name="length">3242</property>
  <property name="eof">pause</property>
  <property name="resource">mySounds/s9.mp3</property>
  <property name="mlt_service">avformat-novalidate</property>
  <property name="seekable">1</property>
  <property name="audio_index">0</property>
  <property name="video_index">-1</property>
  <property name="kdenlive:clipname"/>
  <property name="kdenlive:clip_type">1</property>
  <property name="kdenlive:folderid">38</property>
  <property name="kdenlive:id">23</property>
  <property name="kdenlive:file_size">1663435</property>
  <property name="kdenlive:file_hash">db8daeb648e3c247f376b5b2a91f6db6</property>
  <property name="kdenlive:audio_max0">171</property>
  <property name="meta.media.nb_streams">1</property>
  <property name="meta.media.0.stream.type">audio</property>
  <property name="meta.media.0.codec.sample_fmt">fltp</property>
  <property name="meta.media.0.codec.sample_rate">44100</property>
  <property name="meta.media.0.codec.channels">2</property>
  <property name="meta.media.0.codec.name">mp3float</property>
  <property name="meta.media.0.codec.long_name">MP3 (MPEG audio layer 3)</property>
  <property name="meta.media.0.codec.bit_rate">123139</property>
  <property name="meta.attr.0.stream.encoder.markup">LAME3.100</property>
  <property name="xml">was here</property>
  <property name="mute_on_pause">0</property>
  <property name="set.test_audio">0</property>
  <property name="set.test_image">1</property>
 </chain>
 <playlist id="playlist4">
  <property name="kdenlive:audio_track">1</property>
  <blank length="00:01:00.667"/>
  <entry producer="chain6" in="00:00:00.000" out="00:06:36.800">
   <property name="kdenlive:id">37</property>
  </entry>
  <entry producer="chain8" in="00:00:00.900" out="00:00:14.300">
   <property name="kdenlive:id">22</property>
  </entry>
  <entry producer="chain8" in="00:00:15.367" out="00:00:17.633">
   <property name="kdenlive:id">22</property>
  </entry>
  <blank length="00:00:00.200"/>
  <entry producer="chain8" in="00:00:21.333" out="00:00:23.033">
   <property name="kdenlive:id">22</property>
  </entry>
  <blank length="00:00:00.833"/>
  <entry producer="chain8" in="00:00:23.067" out="00:00:24.967">
   <property name="kdenlive:id">22</property>
  </entry>
  <blank length="00:00:01.233"/>
  <entry producer="chain8" in="00:00:25.000" out="00:00:26.900">
   <property name="kdenlive:id">22</property>
  </entry>
  <entry producer="chain8" in="00:00:26.933" out="00:00:30.467">
   <property name="kdenlive:id">22</property>
  </entry>
  <entry producer="chain8" in="00:00:33.100" out="00:00:54.467">
   <property name="kdenlive:id">22</property>
  </entry>
  <blank length="00:00:00.867"/>
  <entry producer="chain8" in="00:00:57.300" out="00:01:23.000">
   <property name="kdenlive:id">22</property>
  </entry>
  <entry producer="chain8" in="00:01:23.033" out="00:01:39.667">
   <property name="kdenlive:id">22</property>
  </entry>
  <entry producer="chain8" in="00:01:43.367" out="00:01:57.133">
   <property name="kdenlive:id">22</property>
  </entry>
  <entry producer="chain8" in="00:02:02.600" out="00:02:09.667">
   <property name="kdenlive:id">22</property>
  </entry>
  <entry producer="chain9" in="00:00:00.000" out="00:01:00.800">
   <property name="kdenlive:id">23</property>
  </entry>
  <blank length="00:00:00.733"/>
  <entry producer="chain9" in="00:01:03.200" out="00:01:10.167">
   <property name="kdenlive:id">23</property>
  </entry>
  <entry producer="chain9" in="00:01:11.100" out="00:01:19.933">
   <property name="kdenlive:id">23</property>
  </entry>
  <entry producer="chain9" in="00:01:20.733" out="00:01:30.167">
   <property name="kdenlive:id">23</property>
  </entry>
  <blank length="00:00:00.967"/>
  <entry producer="chain9" in="00:01:30.767" out="00:01:48.033">
   <property name="kdenlive:id">23</property>
  </entry>
 </playlist>
 <playlist id="playlist5">
  <property name="kdenlive:audio_track">1</property>
 </playlist>
 <tractor id="tractor2" in="00:00:00.000" out="00:11:15.367">
  <property name="kdenlive:audio_track">1</property>
  <property name="kdenlive:trackheight">69</property>
  <property name="kdenlive:timeline_active">1</property>
  <property name="kdenlive:collapsed">28</property>
  <property name="kdenlive:thumbs_format"/>
  <property name="kdenlive:audio_rec"/>
  <track hide="video" producer="playlist4"/>
  <track hide="video" producer="playlist5"/>
  <filter id="filter24">
   <property name="window">75</property>
   <property name="max_gain">20dB</property>
   <property name="mlt_service">volume</property>
   <property name="internal_added">237</property>
   <property name="disable">1</property>
  </filter>
  <filter id="filter25">
   <property name="channel">-1</property>
   <property name="mlt_service">panner</property>
   <property name="internal_added">237</property>
   <property name="start">0.5</property>
   <property name="disable">1</property>
  </filter>
  <filter id="filter26">
   <property name="iec_scale">0</property>
   <property name="mlt_service">audiolevel</property>
   <property name="dbpeak">1</property>
   <property name="disable">1</property>
  </filter>
 </tractor>
 <chain id="chain11" out="00:06:36.800">
  <property name="length">11905</property>
  <property name="eof">pause</property>
  <property name="resource">ends/end4.mp4</property>
  <property name="mlt_service">avformat-novalidate</property>
  <property name="seekable">1</property>
  <property name="format">3</property>
  <property name="audio_index">1</property>
  <property name="video_index">0</property>
  <property name="kdenlive:clipname"/>
  <property name="kdenlive:clip_type">0</property>
  <property name="kdenlive:folderid">26</property>
  <property name="kdenlive:id">37</property>
  <property name="mute_on_pause">0</property>
  <property name="kdenlive:file_size">33148638</property>
  <property name="kdenlive:file_hash">b9275f5db7ee6b7c4c69470110731dba</property>
  <property name="kdenlive:audio_max1">175</property>
  <property name="meta.media.nb_streams">2</property>
  <property name="meta.media.0.stream.type">video</property>
  <property name="meta.media.0.stream.frame_rate">30</property>
  <property name="meta.media.0.stream.sample_aspect_ratio">1</property>
  <property name="meta.media.0.codec.width">1920</property>
  <property name="meta.media.0.codec.height">1080</property>
  <property name="meta.media.0.codec.rotate">0</property>
  <property name="meta.media.0.codec.pix_fmt">yuv420p</property>
  <property name="meta.media.0.codec.sample_aspect_ratio">1</property>
  <property name="meta.media.0.codec.colorspace">709</property>
  <property name="meta.media.0.codec.color_trc">1</property>
  <property name="meta.media.0.codec.name">h264</property>
  <property name="meta.media.0.codec.long_name">H.264 / AVC / MPEG-4 AVC / MPEG-4 part 10</property>
  <property name="meta.media.0.codec.bit_rate">498836</property>
  <property name="meta.attr.0.stream.handler_name.markup">VideoHandler</property>
  <property name="meta.attr.0.stream.vendor_id.markup">[0][0][0][0]</property>
  <property name="meta.media.1.stream.type">audio</property>
  <property name="meta.media.1.codec.sample_fmt">fltp</property>
  <property name="meta.media.1.codec.sample_rate">48000</property>
  <property name="meta.media.1.codec.channels">2</property>
  <property name="meta.media.1.codec.name">aac</property>
  <property name="meta.media.1.codec.long_name">AAC (Advanced Audio Coding)</property>
  <property name="meta.media.1.codec.bit_rate">160599</property>
  <property name="meta.attr.1.stream.handler_name.markup">SoundHandler</property>
  <property name="meta.attr.1.stream.vendor_id.markup">[0][0][0][0]</property>
  <property name="meta.attr.major_brand.markup">isom</property>
  <property name="meta.attr.minor_version.markup">512</property>
  <property name="meta.attr.compatible_brands.markup">isomiso2avc1mp41</property>
  <property name="meta.attr.encoder.markup">Lavf58.76.100</property>
  <property name="meta.media.sample_aspect_num">1</property>
  <property name="meta.media.sample_aspect_den">1</property>
  <property name="meta.media.frame_rate_num">30</property>
  <property name="meta.media.frame_rate_den">1</property>
  <property name="meta.media.colorspace">709</property>
  <property name="meta.media.color_trc">1</property>
  <property name="meta.media.has_b_frames">2</property>
  <property name="meta.media.width">1920</property>
  <property name="meta.media.height">1080</property>
  <property name="meta.media.color_range">mpeg</property>
  <property name="xml">was here</property>
  <property name="meta.media.top_field_first">0</property>
  <property name="meta.media.progressive">1</property>
  <property name="set.test_audio">1</property>
  <property name="set.test_image">0</property>
 </chain>
 <chain id="chain35" out="00:02:21.533">
  <property name="length">4247</property>
  <property name="eof">pause</property>
  <property name="resource">video/v6.mkv</property>
  <property name="mlt_service">avformat-novalidate</property>
  <property name="seekable">1</property>
  <property name="format">3</property>
  <property name="audio_index">1</property>
  <property name="video_index">0</property>
  <property name="kdenlive:clipname"/>
  <property name="kdenlive:clip_type">0</property>
  <property name="kdenlive:folderid">28</property>
  <property name="kdenlive:id">35</property>
  <property name="mute_on_pause">0</property>
  <property name="kdenlive:file_size">47120633</property>
  <property name="kdenlive:file_hash">0957d2f93364ec50ffe1185534b0bc27</property>
  <property name="kdenlive:audio_max1">1</property>
  <property name="meta.media.nb_streams">2</property>
  <property name="meta.media.0.stream.type">video</property>
  <property name="meta.media.0.stream.frame_rate">30</property>
  <property name="meta.media.0.stream.sample_aspect_ratio">0</property>
  <property name="meta.media.0.codec.width">1920</property>
  <property name="meta.media.0.codec.height">1080</property>
  <property name="meta.media.0.codec.rotate">0</property>
  <property name="meta.media.0.codec.pix_fmt">yuv420p</property>
  <property name="meta.media.0.codec.sample_aspect_ratio">1</property>
  <property name="meta.media.0.codec.colorspace">709</property>
  <property name="meta.media.0.codec.color_trc">1</property>
  <property name="meta.media.0.codec.name">h264</property>
  <property name="meta.media.0.codec.long_name">H.264 / AVC / MPEG-4 AVC / MPEG-4 part 10</property>
  <property name="meta.media.0.codec.bit_rate">0</property>
  <property name="meta.attr.0.stream.DURATION.markup">00:02:21.566000000</property>
  <property name="meta.media.1.stream.type">audio</property>
  <property name="meta.media.1.codec.sample_fmt">fltp</property>
  <property name="meta.media.1.codec.sample_rate">48000</property>
  <property name="meta.media.1.codec.channels">2</property>
  <property name="meta.media.1.codec.name">aac</property>
  <property name="meta.media.1.codec.long_name">AAC (Advanced Audio Coding)</property>
  <property name="meta.media.1.codec.bit_rate">0</property>
  <property name="meta.attr.1.stream.title.markup">simple_aac</property>
  <property name="meta.attr.1.stream.DURATION.markup">00:02:21.504000000</property>
  <property name="meta.attr.ENCODER.markup">Lavf58.76.100</property>
  <property name="meta.media.sample_aspect_num">1</property>
  <property name="meta.media.sample_aspect_den">1</property>
  <property name="meta.media.frame_rate_num">30</property>
  <property name="meta.media.frame_rate_den">1</property>
  <property name="meta.media.colorspace">709</property>
  <property name="meta.media.color_trc">1</property>
  <property name="meta.media.has_b_frames">2</property>
  <property name="meta.media.width">1920</property>
  <property name="meta.media.height">1080</property>
  <property name="meta.media.color_range">mpeg</property>
  <property name="xml">was here</property>
  <property name="meta.media.top_field_first">0</property>
  <property name="meta.media.progressive">1</property>
  <property name="set.test_audio">1</property>
  <property name="set.test_image">0</property>
 </chain>
 <chain id="chain36" out="00:02:02.800">
  <property name="length">3685</property>
  <property name="eof">pause</property>
  <property name="resource">video/v7.mkv</property>
  <property name="mlt_service">avformat-novalidate</property>
  <property name="seekable">1</property>
  <property name="format">3</property>
  <property name="audio_index">1</property>
  <property name="video_index">0</property>
  <property name="kdenlive:clipname"/>
  <property name="kdenlive:clip_type">0</property>
  <property name="kdenlive:folderid">28</property>
  <property name="kdenlive:id">36</property>
  <property name="mute_on_pause">0</property>
  <property name="kdenlive:file_size">40859167</property>
  <property name="kdenlive:file_hash">ddc562c4344b0f43fb4399d45ddfe79d</property>
  <property name="kdenlive:audio_max1">1</property>
  <property name="meta.media.nb_streams">2</property>
  <property name="meta.media.0.stream.type">video</property>
  <property name="meta.media.0.stream.frame_rate">30</property>
  <property name="meta.media.0.stream.sample_aspect_ratio">0</property>
  <property name="meta.media.0.codec.width">1920</property>
  <property name="meta.media.0.codec.height">1080</property>
  <property name="meta.media.0.codec.rotate">0</property>
  <property name="meta.media.0.codec.pix_fmt">yuv420p</property>
  <property name="meta.media.0.codec.sample_aspect_ratio">1</property>
  <property name="meta.media.0.codec.colorspace">709</property>
  <property name="meta.media.0.codec.color_trc">1</property>
  <property name="meta.media.0.codec.name">h264</property>
  <property name="meta.media.0.codec.long_name">H.264 / AVC / MPEG-4 AVC / MPEG-4 part 10</property>
  <property name="meta.media.0.codec.bit_rate">0</property>
  <property name="meta.attr.0.stream.DURATION.markup">00:02:02.833000000</property>
  <property name="meta.media.1.stream.type">audio</property>
  <property name="meta.media.1.codec.sample_fmt">fltp</property>
  <property name="meta.media.1.codec.sample_rate">48000</property>
  <property name="meta.media.1.codec.channels">2</property>
  <property name="meta.media.1.codec.name">aac</property>
  <property name="meta.media.1.codec.long_name">AAC (Advanced Audio Coding)</property>
  <property name="meta.media.1.codec.bit_rate">0</property>
  <property name="meta.attr.1.stream.title.markup">simple_aac</property>
  <property name="meta.attr.1.stream.DURATION.markup">00:02:02.709000000</property>
  <property name="meta.attr.ENCODER.markup">Lavf58.76.100</property>
  <property name="meta.media.sample_aspect_num">1</property>
  <property name="meta.media.sample_aspect_den">1</property>
  <property name="meta.media.frame_rate_num">30</property>
  <property name="meta.media.frame_rate_den">1</property>
  <property name="meta.media.colorspace">709</property>
  <property name="meta.media.color_trc">1</property>
  <property name="meta.media.has_b_frames">2</property>
  <property name="meta.media.width">1920</property>
  <property name="meta.media.height">1080</property>
  <property name="meta.media.color_range">mpeg</property>
  <property name="xml">was here</property>
  <property name="meta.media.top_field_first">0</property>
  <property name="meta.media.progressive">1</property>
  <property name="set.test_audio">1</property>
  <property name="set.test_image">0</property>
 </chain>
 <playlist id="playlist6">
  <blank length="00:01:00.667"/>
  <entry producer="chain11" in="00:00:00.000" out="00:06:36.800">
   <property name="kdenlive:id">37</property>
  </entry>
  <entry producer="chain35" in="00:00:06.633" out="00:00:22.333">
   <property name="kdenlive:id">35</property>
  </entry>
  <entry producer="chain35" in="00:00:26.100" out="00:01:25.500">
   <property name="kdenlive:id">35</property>
  </entry>
  <entry producer="chain35" in="00:01:29.100" out="00:01:45.700">
   <property name="kdenlive:id">35</property>
  </entry>
  <entry producer="chain35" in="00:01:48.900" out="00:01:49.400">
   <property name="kdenlive:id">35</property>
  </entry>
  <entry producer="chain35" in="00:01:49.433" out="00:02:09.800">
   <property name="kdenlive:id">35</property>
  </entry>
  <entry producer="chain36" in="00:00:06.900" out="00:01:07.633">
   <property name="kdenlive:id">36</property>
  </entry>
  <entry producer="chain36" in="00:01:11.933" out="00:01:32.467">
   <property name="kdenlive:id">36</property>
  </entry>
  <entry producer="chain36" in="00:01:30.800" out="00:01:37.300">
   <property name="kdenlive:id">36</property>
  </entry>
  <entry producer="chain36" in="00:01:37.333" out="00:01:50.867">
   <property name="kdenlive:id">36</property>
  </entry>
  <entry producer="chain36" in="00:01:50.900" out="00:01:54.933">
   <property name="kdenlive:id">36</property>
  </entry>
  <entry producer="chain36" in="00:01:50.900" out="00:01:54.933">
   <property name="kdenlive:id">36</property>
  </entry>
  <entry producer="chain36" in="00:01:50.900" out="00:01:54.933">
   <property name="kdenlive:id">36</property>
  </entry>
  <entry producer="chain36" in="00:01:50.900" out="00:01:53.367">
   <property name="kdenlive:id">36</property>
  </entry>
  <entry producer="chain36" in="00:01:54.967" out="00:01:56.600">
   <property name="kdenlive:id">36</property>
  </entry>
 </playlist>
 <playlist id="playlist7"/>
 <tractor id="tractor3" in="00:00:00.000" out="00:11:28.000">
  <property name="kdenlive:trackheight">69</property>
  <property name="kdenlive:timeline_active">1</property>
  <property name="kdenlive:collapsed">28</property>
  <property name="kdenlive:thumbs_format"/>
  <property name="kdenlive:audio_rec"/>
  <track hide="audio" producer="playlist6"/>
  <track hide="audio" producer="playlist7"/>
 </tractor>
 <playlist id="playlist8">
  <blank length="00:03:10.500"/>
  <entry producer="producer1" in="00:00:00.000" out="00:08:17.500">
   <property name="kdenlive:id">4</property>
   <filter id="filter27">
    <property name="rotate_center">1</property>
    <property name="mlt_service">qtblend</property>
    <property name="kdenlive_id">qtblend</property>
    <property name="rect">00:00:00.000=1511 0 409 198 1.000000</property>
    <property name="rotation">00:00:00.000=0</property>
    <property name="compositing">0</property>
    <property name="distort">0</property>
    <property name="kdenlive:collapsed">0</property>
   </filter>
  </entry>
 </playlist>
 <playlist id="playlist9"/>
 <tractor id="tractor4" in="00:00:00.000" out="00:11:28.000">
  <property name="kdenlive:trackheight">69</property>
  <property name="kdenlive:timeline_active">1</property>
  <property name="kdenlive:collapsed">28</property>
  <property name="kdenlive:thumbs_format"/>
  <property name="kdenlive:audio_rec"/>
  <track hide="audio" producer="playlist8"/>
  <track hide="audio" producer="playlist9"/>
  <filter id="filter28" out="00:11:28.033">
   <property name="rotate_center">1</property>
   <property name="mlt_service">qtblend</property>
   <property name="kdenlive_id">qtblend</property>
   <property name="rect">00:00:00.000=0 0 1920 1080 1</property>
   <property name="rotation">00:00:00.000=0</property>
   <property name="compositing">0</property>
   <property name="distort">0</property>
  </filter>
  <filter id="filter29" out="00:11:28.033">
   <property name="rotate_center">1</property>
   <property name="mlt_service">qtblend</property>
   <property name="kdenlive_id">qtblend</property>
   <property name="rect">00:00:00.000=0 0 1920 1080 1</property>
   <property name="rotation">00:00:00.000=0</property>
   <property name="compositing">0</property>
   <property name="distort">0</property>
  </filter>
  <filter id="filter30" out="00:11:28.033">
   <property name="rotate_center">1</property>
   <property name="mlt_service">qtblend</property>
   <property name="kdenlive_id">qtblend</property>
   <property name="rect">00:00:00.000=0 0 1920 1080 1</property>
   <property name="rotation">00:00:00.000=0</property>
   <property name="compositing">0</property>
   <property name="distort">0</property>
  </filter>
 </tractor>
 <tractor id="tractor5" in="00:00:00.000" out="00:28:08.033">
  <property name="kdenlive:duration">00:11:28:01</property>
  <property name="kdenlive:maxduration">20641</property>
  <property name="kdenlive:clipname">Sequence 1</property>
  <property name="kdenlive:description"/>
  <property name="kdenlive:uuid">{5a186749-ae3f-4cbe-89f0-f28d2371726e}</property>
  <property name="kdenlive:producer_type">17</property>
  <property name="kdenlive:id">3</property>
  <property name="kdenlive:clip_type">0</property>
  <property name="kdenlive:file_hash">31ec7b05e92dbf3aded0163010b67203</property>
  <property name="kdenlive:folderid">2</property>
  <property name="kdenlive:sequenceproperties.activeTrack">1</property>
  <property name="kdenlive:sequenceproperties.audioTarget">1</property>
  <property name="kdenlive:sequenceproperties.disablepreview">0</property>
  <property name="kdenlive:sequenceproperties.documentuuid">{5a186749-ae3f-4cbe-89f0-f28d2371726e}</property>
  <property name="kdenlive:sequenceproperties.hasAudio">1</property>
  <property name="kdenlive:sequenceproperties.hasVideo">1</property>
  <property name="kdenlive:sequenceproperties.position">8330</property>
  <property name="kdenlive:sequenceproperties.scrollPos">0</property>
  <property name="kdenlive:sequenceproperties.tracks">4</property>
  <property name="kdenlive:sequenceproperties.tracksCount">5</property>
  <property name="kdenlive:sequenceproperties.verticalzoom">1</property>
  <property name="kdenlive:sequenceproperties.videoTarget">2</property>
  <property name="kdenlive:sequenceproperties.zonein">1813</property>
  <property name="kdenlive:sequenceproperties.zoneout">20641</property>
  <property name="kdenlive:sequenceproperties.zoom">13</property>
  <property name="kdenlive:sequenceproperties.groups">[
    {
        "children": [
            {
                "data": "3:1820",
                "leaf": "clip",
                "type": "Leaf"
            },
            {
                "data": "2:1820",
                "leaf": "clip",
                "type": "Leaf"
            }
        ],
        "type": "AVSplit"
    }
]
</property>
  <property name="kdenlive:sequenceproperties.guides">[
]
</property>
  <track producer="producer0"/>
  <track producer="tractor0"/>
  <track producer="tractor1"/>
  <track producer="tractor2"/>
  <track producer="tractor3"/>
  <track producer="tractor4"/>
  <transition id="transition0">
   <property name="a_track">0</property>
   <property name="b_track">1</property>
   <property name="mlt_service">mix</property>
   <property name="kdenlive_id">mix</property>
   <property name="internal_added">237</property>
   <property name="always_active">1</property>
   <property name="accepts_blanks">1</property>
   <property name="sum">1</property>
  </transition>
  <transition id="transition1">
   <property name="a_track">0</property>
   <property name="b_track">2</property>
   <property name="mlt_service">mix</property>
   <property name="kdenlive_id">mix</property>
   <property name="internal_added">237</property>
   <property name="always_active">1</property>
   <property name="accepts_blanks">1</property>
   <property name="sum">1</property>
  </transition>
  <transition id="transition2">
   <property name="a_track">0</property>
   <property name="b_track">3</property>
   <property name="mlt_service">mix</property>
   <property name="kdenlive_id">mix</property>
   <property name="internal_added">237</property>
   <property name="always_active">1</property>
   <property name="accepts_blanks">1</property>
   <property name="sum">1</property>
  </transition>
  <transition id="transition3">
   <property name="a_track">0</property>
   <property name="b_track">4</property>
   <property name="compositing">0</property>
   <property name="distort">0</property>
   <property name="rotate_center">0</property>
   <property name="mlt_service">qtblend</property>
   <property name="always_active">1</property>
   <property name="internal_added">237</property>
  </transition>
  <transition id="transition4">
   <property name="a_track">0</property>
   <property name="b_track">5</property>
   <property name="compositing">0</property>
   <property name="distort">0</property>
   <property name="rotate_center">0</property>
   <property name="mlt_service">qtblend</property>
   <property name="always_active">1</property>
   <property name="internal_added">237</property>
  </transition>
  <filter id="filter31">
   <property name="window">75</property>
   <property name="max_gain">20dB</property>
   <property name="level">0</property>
   <property name="mlt_service">volume</property>
   <property name="internal_added">237</property>
   <property name="disable">1</property>
  </filter>
  <filter id="filter32">
   <property name="channel">-1</property>
   <property name="mlt_service">panner</property>
   <property name="internal_added">237</property>
   <property name="start">0.5</property>
   <property name="disable">1</property>
  </filter>
 </tractor>
 <chain id="chain37" out="00:02:21.533">
  <property name="length">4247</property>
  <property name="eof">pause</property>
  <property name="resource">video/v6.mkv</property>
  <property name="mlt_service">avformat-novalidate</property>
  <property name="meta.media.nb_streams">2</property>
  <property name="meta.media.0.stream.type">video</property>
  <property name="meta.media.0.stream.frame_rate">30</property>
  <property name="meta.media.0.stream.sample_aspect_ratio">0</property>
  <property name="meta.media.0.codec.width">1920</property>
  <property name="meta.media.0.codec.height">1080</property>
  <property name="meta.media.0.codec.rotate">0</property>
  <property name="meta.media.0.codec.pix_fmt">yuv420p</property>
  <property name="meta.media.0.codec.sample_aspect_ratio">1</property>
  <property name="meta.media.0.codec.colorspace">709</property>
  <property name="meta.media.0.codec.color_trc">1</property>
  <property name="meta.media.0.codec.name">h264</property>
  <property name="meta.media.0.codec.long_name">H.264 / AVC / MPEG-4 AVC / MPEG-4 part 10</property>
  <property name="meta.media.0.codec.bit_rate">0</property>
  <property name="meta.attr.0.stream.DURATION.markup">00:02:21.566000000</property>
  <property name="meta.media.1.stream.type">audio</property>
  <property name="meta.media.1.codec.sample_fmt">fltp</property>
  <property name="meta.media.1.codec.sample_rate">48000</property>
  <property name="meta.media.1.codec.channels">2</property>
  <property name="meta.media.1.codec.name">aac</property>
  <property name="meta.media.1.codec.long_name">AAC (Advanced Audio Coding)</property>
  <property name="meta.media.1.codec.bit_rate">0</property>
  <property name="meta.attr.1.stream.title.markup">simple_aac</property>
  <property name="meta.attr.1.stream.DURATION.markup">00:02:21.504000000</property>
  <property name="meta.attr.ENCODER.markup">Lavf58.76.100</property>
  <property name="seekable">1</property>
  <property name="meta.media.sample_aspect_num">1</property>
  <property name="meta.media.sample_aspect_den">1</property>
  <property name="format">3</property>
  <property name="audio_index">1</property>
  <property name="video_index">0</property>
  <property name="meta.media.frame_rate_num">30</property>
  <property name="meta.media.frame_rate_den">1</property>
  <property name="meta.media.colorspace">709</property>
  <property name="meta.media.color_trc">1</property>
  <property name="meta.media.has_b_frames">2</property>
  <property name="meta.media.width">1920</property>
  <property name="meta.media.height">1080</property>
  <property name="meta.media.color_range">mpeg</property>
  <property name="kdenlive:clipname"/>
  <property name="meta.media.top_field_first">0</property>
  <property name="meta.media.progressive">1</property>
  <property name="kdenlive:clip_type">0</property>
  <property name="kdenlive:folderid">28</property>
  <property name="kdenlive:id">35</property>
  <property name="mute_on_pause">0</property>
  <property name="kdenlive:file_size">47120633</property>
  <property name="kdenlive:file_hash">0957d2f93364ec50ffe1185534b0bc27</property>
  <property name="kdenlive:audio_max1">1</property>
 </chain>
 <chain id="chain38" out="00:02:02.800">
  <property name="length">3685</property>
  <property name="eof">pause</property>
  <property name="resource">video/v7.mkv</property>
  <property name="mlt_service">avformat-novalidate</property>
  <property name="meta.media.nb_streams">2</property>
  <property name="meta.media.0.stream.type">video</property>
  <property name="meta.media.0.stream.frame_rate">30</property>
  <property name="meta.media.0.stream.sample_aspect_ratio">0</property>
  <property name="meta.media.0.codec.width">1920</property>
  <property name="meta.media.0.codec.height">1080</property>
  <property name="meta.media.0.codec.rotate">0</property>
  <property name="meta.media.0.codec.pix_fmt">yuv420p</property>
  <property name="meta.media.0.codec.sample_aspect_ratio">1</property>
  <property name="meta.media.0.codec.colorspace">709</property>
  <property name="meta.media.0.codec.color_trc">1</property>
  <property name="meta.media.0.codec.name">h264</property>
  <property name="meta.media.0.codec.long_name">H.264 / AVC / MPEG-4 AVC / MPEG-4 part 10</property>
  <property name="meta.media.0.codec.bit_rate">0</property>
  <property name="meta.attr.0.stream.DURATION.markup">00:02:02.833000000</property>
  <property name="meta.media.1.stream.type">audio</property>
  <property name="meta.media.1.codec.sample_fmt">fltp</property>
  <property name="meta.media.1.codec.sample_rate">48000</property>
  <property name="meta.media.1.codec.channels">2</property>
  <property name="meta.media.1.codec.name">aac</property>
  <property name="meta.media.1.codec.long_name">AAC (Advanced Audio Coding)</property>
  <property name="meta.media.1.codec.bit_rate">0</property>
  <property name="meta.attr.1.stream.title.markup">simple_aac</property>
  <property name="meta.attr.1.stream.DURATION.markup">00:02:02.709000000</property>
  <property name="meta.attr.ENCODER.markup">Lavf58.76.100</property>
  <property name="seekable">1</property>
  <property name="meta.media.sample_aspect_num">1</property>
  <property name="meta.media.sample_aspect_den">1</property>
  <property name="format">3</property>
  <property name="audio_index">1</property>
  <property name="video_index">0</property>
  <property name="meta.media.frame_rate_num">30</property>
  <property name="meta.media.frame_rate_den">1</property>
  <property name="meta.media.colorspace">709</property>
  <property name="meta.media.color_trc">1</property>
  <property name="meta.media.has_b_frames">2</property>
  <property name="meta.media.width">1920</property>
  <property name="meta.media.height">1080</property>
  <property name="meta.media.color_range">mpeg</property>
  <property name="kdenlive:clipname"/>
  <property name="meta.media.top_field_first">0</property>
  <property name="meta.media.progressive">1</property>
  <property name="kdenlive:clip_type">0</property>
  <property name="kdenlive:folderid">28</property>
  <property name="kdenlive:id">36</property>
  <property name="mute_on_pause">0</property>
  <property name="kdenlive:file_size">40859167</property>
  <property name="kdenlive:file_hash">ddc562c4344b0f43fb4399d45ddfe79d</property>
  <property name="kdenlive:audio_max1">1</property>
 </chain>
 <chain id="chain42" out="00:06:36.800">
  <property name="length">11905</property>
  <property name="eof">pause</property>
  <property name="resource">ends/end4.mp4</property>
  <property name="mlt_service">avformat-novalidate</property>
  <property name="meta.media.nb_streams">2</property>
  <property name="meta.media.0.stream.type">video</property>
  <property name="meta.media.0.stream.frame_rate">30</property>
  <property name="meta.media.0.stream.sample_aspect_ratio">1</property>
  <property name="meta.media.0.codec.width">1920</property>
  <property name="meta.media.0.codec.height">1080</property>
  <property name="meta.media.0.codec.rotate">0</property>
  <property name="meta.media.0.codec.pix_fmt">yuv420p</property>
  <property name="meta.media.0.codec.sample_aspect_ratio">1</property>
  <property name="meta.media.0.codec.colorspace">709</property>
  <property name="meta.media.0.codec.color_trc">1</property>
  <property name="meta.media.0.codec.name">h264</property>
  <property name="meta.media.0.codec.long_name">H.264 / AVC / MPEG-4 AVC / MPEG-4 part 10</property>
  <property name="meta.media.0.codec.bit_rate">498836</property>
  <property name="meta.attr.0.stream.handler_name.markup">VideoHandler</property>
  <property name="meta.attr.0.stream.vendor_id.markup">[0][0][0][0]</property>
  <property name="meta.media.1.stream.type">audio</property>
  <property name="meta.media.1.codec.sample_fmt">fltp</property>
  <property name="meta.media.1.codec.sample_rate">48000</property>
  <property name="meta.media.1.codec.channels">2</property>
  <property name="meta.media.1.codec.name">aac</property>
  <property name="meta.media.1.codec.long_name">AAC (Advanced Audio Coding)</property>
  <property name="meta.media.1.codec.bit_rate">160599</property>
  <property name="meta.attr.1.stream.handler_name.markup">SoundHandler</property>
  <property name="meta.attr.1.stream.vendor_id.markup">[0][0][0][0]</property>
  <property name="meta.attr.major_brand.markup">isom</property>
  <property name="meta.attr.minor_version.markup">512</property>
  <property name="meta.attr.compatible_brands.markup">isomiso2avc1mp41</property>
  <property name="meta.attr.encoder.markup">Lavf58.76.100</property>
  <property name="seekable">1</property>
  <property name="meta.media.sample_aspect_num">1</property>
  <property name="meta.media.sample_aspect_den">1</property>
  <property name="format">3</property>
  <property name="audio_index">1</property>
  <property name="video_index">0</property>
  <property name="meta.media.frame_rate_num">30</property>
  <property name="meta.media.frame_rate_den">1</property>
  <property name="meta.media.colorspace">709</property>
  <property name="meta.media.color_trc">1</property>
  <property name="meta.media.has_b_frames">2</property>
  <property name="meta.media.width">1920</property>
  <property name="meta.media.height">1080</property>
  <property name="meta.media.color_range">mpeg</property>
  <property name="kdenlive:clipname"/>
  <property name="meta.media.top_field_first">0</property>
  <property name="meta.media.progressive">1</property>
  <property name="kdenlive:clip_type">0</property>
  <property name="kdenlive:folderid">26</property>
  <property name="kdenlive:id">37</property>
  <property name="mute_on_pause">0</property>
  <property name="kdenlive:file_size">33148638</property>
  <property name="kdenlive:file_hash">b9275f5db7ee6b7c4c69470110731dba</property>
  <property name="kdenlive:audio_max1">175</property>
 </chain>
 <playlist id="main_bin">
  <property name="kdenlive:folder.-1.2">Sequences</property>
  <property name="kdenlive:folder.-1.17">sounds</property>
  <property name="kdenlive:folder.-1.38">mySounds</property>
  <property name="kdenlive:folder.-1.26">ends</property>
  <property name="kdenlive:folder.-1.28">video</property>
  <property name="kdenlive:docproperties.activetimeline">{5a186749-ae3f-4cbe-89f0-f28d2371726e}</property>
  <property name="kdenlive:docproperties.audioChannels">2</property>
  <property name="kdenlive:docproperties.browserurl">/home/pila/Videos/</property>
  <property name="kdenlive:docproperties.compositing">1</property>
  <property name="kdenlive:docproperties.documentid">1695923761387</property>
  <property name="kdenlive:docproperties.enableTimelineZone">0</property>
  <property name="kdenlive:docproperties.enableexternalproxy">0</property>
  <property name="kdenlive:docproperties.enableproxy">0</property>
  <property name="kdenlive:docproperties.externalproxyparams"/>
  <property name="kdenlive:docproperties.generateimageproxy">0</property>
  <property name="kdenlive:docproperties.generateproxy">0</property>
  <property name="kdenlive:docproperties.guidesCategories">[
    {
        "color": "#9b59b6",
        "comment": "Category 1",
        "index": 0
    },
    {
        "color": "#3daee9",
        "comment": "Category 2",
        "index": 1
    },
    {
        "color": "#1abc9c",
        "comment": "Category 3",
        "index": 2
    },
    {
        "color": "#1cdc9a",
        "comment": "Category 4",
        "index": 3
    },
    {
        "color": "#c9ce3b",
        "comment": "Category 5",
        "index": 4
    },
    {
        "color": "#fdbc4b",
        "comment": "Category 6",
        "index": 5
    },
    {
        "color": "#f39c1f",
        "comment": "Category 7",
        "index": 6
    },
    {
        "color": "#f47750",
        "comment": "Category 8",
        "index": 7
    },
    {
        "color": "#da4453",
        "comment": "Category 9",
        "index": 8
    }
]
</property>
  <property name="kdenlive:docproperties.kdenliveversion">23.08.1</property>
  <property name="kdenlive:docproperties.opensequences">{5a186749-ae3f-4cbe-89f0-f28d2371726e}</property>
  <property name="kdenlive:docproperties.previewextension"/>
  <property name="kdenlive:docproperties.previewparameters"/>
  <property name="kdenlive:docproperties.profile">atsc_1080p_30</property>
  <property name="kdenlive:docproperties.proxyextension"/>
  <property name="kdenlive:docproperties.proxyimageminsize">2000</property>
  <property name="kdenlive:docproperties.proxyimagesize">800</property>
  <property name="kdenlive:docproperties.proxyminsize">1000</property>
  <property name="kdenlive:docproperties.proxyparams"/>
  <property name="kdenlive:docproperties.proxyresize">640</property>
  <property name="kdenlive:docproperties.rendercategory">Generic (HD for web, mobile devices...)</property>
  <property name="kdenlive:docproperties.rendercustomquality">-1</property>
  <property name="kdenlive:docproperties.renderendguide">-1</property>
  <property name="kdenlive:docproperties.renderexportaudio">0</property>
  <property name="kdenlive:docproperties.renderfullcolorrange">0</property>
  <property name="kdenlive:docproperties.rendermode">1</property>
  <property name="kdenlive:docproperties.renderplay">0</property>
  <property name="kdenlive:docproperties.renderpreview">0</property>
  <property name="kdenlive:docproperties.renderprofile">MP4-H264/AAC</property>
  <property name="kdenlive:docproperties.renderrescale">0</property>
  <property name="kdenlive:docproperties.renderrescaleheight">540</property>
  <property name="kdenlive:docproperties.renderrescalewidth">960</property>
  <property name="kdenlive:docproperties.renderspeed">6</property>
  <property name="kdenlive:docproperties.renderstartguide">-1</property>
  <property name="kdenlive:docproperties.rendertcoverlay">0</property>
  <property name="kdenlive:docproperties.rendertctype">-1</property>
  <property name="kdenlive:docproperties.rendertwopass">0</property>
  <property name="kdenlive:docproperties.renderurl">ends/end5.mp4</property>
  <property name="kdenlive:docproperties.seekOffset">30000</property>
  <property name="kdenlive:docproperties.uuid">{5a186749-ae3f-4cbe-89f0-f28d2371726e}</property>
  <property name="kdenlive:docproperties.version">1.1</property>
  <property name="kdenlive:expandedFolders"/>
  <property name="kdenlive:binZoom">4</property>
  <property name="kdenlive:documentnotes"/>
  <property name="xml_retain">1</property>
  <entry producer="producer1" in="00:00:00.000" out="00:04:56.267"/>
  <entry producer="chain14" in="00:00:00.000" out="00:00:01.033"/>
  <entry producer="chain16" in="00:00:00.000" out="00:00:01.033"/>
  <entry producer="chain15" in="00:00:00.000" out="00:00:01.333"/>
  <entry producer="chain18" in="00:00:00.000" out="00:00:00.700"/>
  <entry producer="chain17" in="00:00:00.000" out="00:00:00.833"/>
  <entry producer="chain19" in="00:00:00.000" out="00:00:00.633"/>
  <entry producer="chain20" in="00:00:00.000" out="00:00:00.700"/>
  <entry producer="chain22" in="00:00:00.000" out="00:00:01.000"/>
  <entry producer="chain21" in="00:00:00.000" out="00:00:35.933"/>
  <entry producer="chain10" in="00:00:00.000" out="00:00:48.933"/>
  <entry producer="chain12" in="00:00:00.000" out="00:00:51.633"/>
  <entry producer="chain23" in="00:00:00.000" out="00:01:35.500"/>
  <entry producer="chain26" in="00:00:00.000" out="00:01:28.267"/>
  <entry producer="chain25" in="00:00:00.000" out="00:00:35.000"/>
  <entry producer="chain24" in="00:00:00.000" out="00:01:06.200"/>
  <entry producer="chain28" in="00:00:00.000" out="00:00:59.500"/>
  <entry producer="chain27" in="00:00:00.000" out="00:02:10.433"/>
  <entry producer="chain29" in="00:00:00.000" out="00:01:48.033"/>
  <entry producer="chain30" in="00:00:00.000" out="00:00:58.033"/>
  <entry producer="chain32" in="00:00:00.000" out="00:00:52.133"/>
  <entry producer="chain33" in="00:00:00.000" out="00:01:35.667"/>
  <entry producer="chain34" in="00:00:00.000" out="00:01:52.233"/>
  <entry producer="chain13" in="00:00:00.000" out="00:02:19.400"/>
  <entry producer="chain31" in="00:00:00.000" out="00:01:48.067"/>
  <entry producer="chain39" in="00:00:00.000" out="00:00:56.000"/>
  <entry producer="chain40" in="00:00:00.000" out="00:02:33.433"/>
  <entry producer="chain41" in="00:00:00.000" out="00:03:49.700"/>
  <entry producer="tractor5" in="00:00:00.000" out="00:07:37.233"/>
  <entry producer="chain37" in="00:00:00.000" out="00:02:21.533"/>
  <entry producer="chain38" in="00:00:00.000" out="00:02:02.800"/>
  <entry producer="chain42" in="00:00:00.000" out="00:06:36.800"/>
 </playlist>
 <tractor id="tractor6" in="00:00:00.000" out="00:11:28.033">
  <property name="kdenlive:projectTractor">1</property>
  <track producer="tractor5" in="00:00:00.000" out="00:11:28.033"/>
 </tractor>
</mlt>
